<svg class="animated" id="freepik_stories-calendar" xmlns="http://www.w3.org/2000/svg" viewBox="0 0 500 500" version="1.1" xmlns:xlink="http://www.w3.org/1999/xlink" xmlns:svgjs="http://svgjs.com/svgjs"><style>svg#freepik_stories-calendar:not(.animated) .animable {opacity: 0;}svg#freepik_stories-calendar.animated #freepik--Calendar--inject-147 {animation: 1s 1 forwards cubic-bezier(.36,-0.01,.5,1.38) slideLeft;animation-delay: 0s;}svg#freepik_stories-calendar.animated #freepik--Character--inject-147 {animation: 1s 1 forwards cubic-bezier(.36,-0.01,.5,1.38) slideDown;animation-delay: 0s;}            @keyframes slideLeft {                0% {                    opacity: 0;                    transform: translateX(-30px);                }                100% {                    opacity: 1;                    transform: translateX(0);                }            }                    @keyframes slideDown {                0% {                    opacity: 0;                    transform: translateY(-30px);                }                100% {                    opacity: 1;                    transform: translateY(0);                }            }        </style><g id="freepik--Shadow--inject-147" style="transform-origin: 250px 416.24px 0px;" class="animable"><ellipse cx="250" cy="416.24" rx="193.89" ry="11.32" style="fill: rgb(245, 245, 245); transform-origin: 250px 416.24px 0px;" id="el3l5ere5o6a3" class="animable"></ellipse></g><g id="freepik--Calendar--inject-147" style="transform-origin: 274.337px 321.906px 0px;" class="animable"><path d="M180.45,272.44a2.34,2.34,0,0,1,0-4.67c5.72,0,10.54-8.19,10.54-17.89a2.34,2.34,0,0,1,4.67,0C195.66,262.53,189,272.44,180.45,272.44Z" style="fill: rgb(152, 24, 198); transform-origin: 186.961px 260.066px 0px;" id="el68ltjt3y61o" class="animable"></path><path d="M215.74,272.44a2.34,2.34,0,0,1,0-4.67c5.72,0,10.54-8.19,10.54-17.89a2.34,2.34,0,0,1,4.67,0C231,262.53,224.27,272.44,215.74,272.44Z" style="fill: rgb(152, 24, 198); transform-origin: 222.252px 260.066px 0px;" id="elz33ndtpa3r" class="animable"></path><path d="M251,272.44a2.34,2.34,0,0,1,0-4.67c5.71,0,10.54-8.19,10.54-17.89a2.33,2.33,0,0,1,4.66,0C266.23,262.53,259.56,272.44,251,272.44Z" style="fill: rgb(152, 24, 198); transform-origin: 257.506px 259.995px 0px;" id="elhqzjvajdv6k" class="animable"></path><path d="M286.32,272.44a2.34,2.34,0,1,1,0-4.67c5.71,0,10.54-8.19,10.54-17.89a2.33,2.33,0,0,1,4.66,0C301.52,262.53,294.84,272.44,286.32,272.44Z" style="fill: rgb(152, 24, 198); transform-origin: 292.674px 259.998px 0px;" id="elvhc5vh4n33h" class="animable"></path><path d="M321.6,272.44a2.34,2.34,0,0,1,0-4.67c5.72,0,10.54-8.19,10.54-17.89a2.34,2.34,0,0,1,4.67,0C336.81,262.53,330.13,272.44,321.6,272.44Z" style="fill: rgb(152, 24, 198); transform-origin: 328.111px 260.066px 0px;" id="el6igdfhobcjc" class="animable"></path><path d="M356.89,272.44a2.34,2.34,0,0,1,0-4.67c5.71,0,10.54-8.19,10.54-17.89a2.34,2.34,0,0,1,4.67,0C372.1,262.53,365.42,272.44,356.89,272.44Z" style="fill: rgb(152, 24, 198); transform-origin: 363.401px 260.066px 0px;" id="elm5pld15hzuk" class="animable"></path><g id="elj6lt0jmxnub"><g style="opacity: 0.3; transform-origin: 275.181px 259.998px 0px;" class="animable"><path d="M180.45,272.44a2.34,2.34,0,0,1,0-4.67c5.72,0,10.54-8.19,10.54-17.89a2.34,2.34,0,0,1,4.67,0C195.66,262.53,189,272.44,180.45,272.44Z" id="elcglroo8kebv" style="transform-origin: 186.961px 260.066px 0px;" class="animable"></path><path d="M215.74,272.44a2.34,2.34,0,0,1,0-4.67c5.72,0,10.54-8.19,10.54-17.89a2.34,2.34,0,0,1,4.67,0C231,262.53,224.27,272.44,215.74,272.44Z" id="elidmwwfpfgop" style="transform-origin: 222.252px 260.066px 0px;" class="animable"></path><path d="M251,272.44a2.34,2.34,0,0,1,0-4.67c5.71,0,10.54-8.19,10.54-17.89a2.33,2.33,0,0,1,4.66,0C266.23,262.53,259.56,272.44,251,272.44Z" id="elfcqs22of88q" style="transform-origin: 257.506px 259.995px 0px;" class="animable"></path><path d="M286.32,272.44a2.34,2.34,0,1,1,0-4.67c5.71,0,10.54-8.19,10.54-17.89a2.33,2.33,0,0,1,4.66,0C301.52,262.53,294.84,272.44,286.32,272.44Z" id="el2q4ffh5xd7c" style="transform-origin: 292.674px 259.998px 0px;" class="animable"></path><path d="M321.6,272.44a2.34,2.34,0,0,1,0-4.67c5.72,0,10.54-8.19,10.54-17.89a2.34,2.34,0,0,1,4.67,0C336.81,262.53,330.13,272.44,321.6,272.44Z" id="el4x3zi5w6m8o" style="transform-origin: 328.111px 260.066px 0px;" class="animable"></path><path d="M356.89,272.44a2.34,2.34,0,0,1,0-4.67c5.71,0,10.54-8.19,10.54-17.89a2.34,2.34,0,0,1,4.67,0C372.1,262.53,365.42,272.44,356.89,272.44Z" id="el21if54ta59i" style="transform-origin: 363.401px 260.066px 0px;" class="animable"></path></g></g><path d="M158.34,252.27H385.52a12.51,12.51,0,0,1,12.19,11.19l12.58,141.83a10.11,10.11,0,0,1-10.2,11.19H172.9a12.53,12.53,0,0,1-12.19-11.19L148.14,263.46A10.1,10.1,0,0,1,158.34,252.27Z" style="fill: rgb(152, 24, 198); transform-origin: 279.214px 334.375px 0px;" id="elpn8um6rdrlg" class="animable"></path><g id="el7x10vmsfshr"><path d="M158.34,252.27H385.52a12.51,12.51,0,0,1,12.19,11.19l12.58,141.83a10.11,10.11,0,0,1-10.2,11.19H172.9a12.53,12.53,0,0,1-12.19-11.19L148.14,263.46A10.1,10.1,0,0,1,158.34,252.27Z" style="fill: rgb(250, 250, 250); opacity: 0.4; transform-origin: 279.214px 334.375px 0px;" class="animable"></path></g><path d="M383.63,252.27H156.44a11.86,11.86,0,0,0-11.7,11.19l-6.4,141.83A10.63,10.63,0,0,0,149,416.48H376.21a11.86,11.86,0,0,0,11.7-11.19l6.41-141.83A10.64,10.64,0,0,0,383.63,252.27Z" style="fill: rgb(152, 24, 198); transform-origin: 266.33px 334.375px 0px;" id="el19zqbb7hzlt" class="animable"></path><g id="elij2x0fgkk5"><path d="M383.63,252.27H156.44a11.86,11.86,0,0,0-11.7,11.19l-6.4,141.83A10.63,10.63,0,0,0,149,416.48H376.21a11.86,11.86,0,0,0,11.7-11.19l6.41-141.83A10.64,10.64,0,0,0,383.63,252.27Z" style="fill: rgb(250, 250, 250); opacity: 0.2; transform-origin: 266.33px 334.375px 0px;" class="animable"></path></g><path d="M160.61,379l5.29-117.13a4.53,4.53,0,0,1,4.48-4.28H369.21a4.07,4.07,0,0,1,4.09,4.28L368,379a4.53,4.53,0,0,1-4.48,4.28H164.7A4.07,4.07,0,0,1,160.61,379Z" style="fill: rgb(152, 24, 198); transform-origin: 266.955px 320.435px 0px;" id="el6b7iruzlzy5" class="animable"></path><g id="el9tklekdcvi"><path d="M160.61,379l5.29-117.13a4.53,4.53,0,0,1,4.48-4.28H369.21a4.07,4.07,0,0,1,4.09,4.28L368,379a4.53,4.53,0,0,1-4.48,4.28H164.7A4.07,4.07,0,0,1,160.61,379Z" style="fill: rgb(250, 250, 250); opacity: 0.1; transform-origin: 266.955px 320.435px 0px;" class="animable"></path></g><g id="el8za3q6zjuzo"><path d="M155,388.56l5.55-123a4.74,4.74,0,0,1,4.7-4.49H374.05a4.26,4.26,0,0,1,4.29,4.49l-5.56,123a4.75,4.75,0,0,1-4.69,4.5H159.27A4.25,4.25,0,0,1,155,388.56Z" style="opacity: 0.1; transform-origin: 266.669px 327.065px 0px;" class="animable"></path></g><path d="M149.84,398.48l5.79-128.3a5,5,0,0,1,4.9-4.69H378.34a4.45,4.45,0,0,1,4.48,4.69L377,398.48a5,5,0,0,1-4.9,4.69H154.32A4.44,4.44,0,0,1,149.84,398.48Z" style="fill: rgb(250, 250, 250); transform-origin: 266.33px 334.33px 0px;" id="ell2n9u3cx0gc" class="animable"></path><path d="M356.86,273.18h0a3,3,0,0,1-3-3.18h0a3.15,3.15,0,0,1,3.11-3h0a3,3,0,0,1,3,3.18h0A3.15,3.15,0,0,1,356.86,273.18Z" style="fill: rgb(152, 24, 198); transform-origin: 356.915px 270.09px 0px;" id="el6vkdklw7sle" class="animable"></path><path d="M321.57,273.18h0a3,3,0,0,1-3-3.18h0a3.15,3.15,0,0,1,3.11-3h0a3,3,0,0,1,3,3.18h0A3.14,3.14,0,0,1,321.57,273.18Z" style="fill: rgb(152, 24, 198); transform-origin: 321.625px 270.09px 0px;" id="el3x11b8hl1b" class="animable"></path><path d="M286.28,273.18h0a3,3,0,0,1-3-3.18h0a3.16,3.16,0,0,1,3.11-3h0a3,3,0,0,1,3,3.18h0A3.14,3.14,0,0,1,286.28,273.18Z" style="fill: rgb(152, 24, 198); transform-origin: 286.335px 270.09px 0px;" id="elevjjp25i5k" class="animable"></path><path d="M251,273.18h0a3,3,0,0,1-3-3.18h0a3.17,3.17,0,0,1,3.12-3h0a3,3,0,0,1,3,3.18h0A3.14,3.14,0,0,1,251,273.18Z" style="fill: rgb(152, 24, 198); transform-origin: 251.06px 270.09px 0px;" id="el57ylm4kzldg" class="animable"></path><path d="M215.71,273.18h0a3,3,0,0,1-3-3.18h0a3.15,3.15,0,0,1,3.11-3h0a3,3,0,0,1,3,3.18h0A3.15,3.15,0,0,1,215.71,273.18Z" style="fill: rgb(152, 24, 198); transform-origin: 215.765px 270.09px 0px;" id="elk49l7yp6ms" class="animable"></path><path d="M180.42,273.18h0a3,3,0,0,1-3-3.18h0a3.15,3.15,0,0,1,3.11-3h0a3,3,0,0,1,3,3.18h0A3.14,3.14,0,0,1,180.42,273.18Z" style="fill: rgb(152, 24, 198); transform-origin: 180.475px 270.09px 0px;" id="elcbwm48jxcp" class="animable"></path><g id="elipk9cy605d"><g style="opacity: 0.1; transform-origin: 268.695px 270.09px 0px;" class="animable"><path d="M356.86,273.18h0a3,3,0,0,1-3-3.18h0a3.15,3.15,0,0,1,3.11-3h0a3,3,0,0,1,3,3.18h0A3.15,3.15,0,0,1,356.86,273.18Z" style="fill: rgb(250, 250, 250); transform-origin: 356.915px 270.09px 0px;" id="elwn8w0uvdjri" class="animable"></path><path d="M321.57,273.18h0a3,3,0,0,1-3-3.18h0a3.15,3.15,0,0,1,3.11-3h0a3,3,0,0,1,3,3.18h0A3.14,3.14,0,0,1,321.57,273.18Z" style="fill: rgb(250, 250, 250); transform-origin: 321.625px 270.09px 0px;" id="eld6xv1ihg4xp" class="animable"></path><path d="M286.28,273.18h0a3,3,0,0,1-3-3.18h0a3.16,3.16,0,0,1,3.11-3h0a3,3,0,0,1,3,3.18h0A3.14,3.14,0,0,1,286.28,273.18Z" style="fill: rgb(250, 250, 250); transform-origin: 286.335px 270.09px 0px;" id="elkbvkc4dxuv" class="animable"></path><path d="M251,273.18h0a3,3,0,0,1-3-3.18h0a3.17,3.17,0,0,1,3.12-3h0a3,3,0,0,1,3,3.18h0A3.14,3.14,0,0,1,251,273.18Z" style="fill: rgb(250, 250, 250); transform-origin: 251.06px 270.09px 0px;" id="el58pyge7xyji" class="animable"></path><path d="M215.71,273.18h0a3,3,0,0,1-3-3.18h0a3.15,3.15,0,0,1,3.11-3h0a3,3,0,0,1,3,3.18h0A3.15,3.15,0,0,1,215.71,273.18Z" style="fill: rgb(250, 250, 250); transform-origin: 215.765px 270.09px 0px;" id="elzuhf68utxb" class="animable"></path><path d="M180.42,273.18h0a3,3,0,0,1-3-3.18h0a3.15,3.15,0,0,1,3.11-3h0a3,3,0,0,1,3,3.18h0A3.14,3.14,0,0,1,180.42,273.18Z" style="fill: rgb(250, 250, 250); transform-origin: 180.475px 270.09px 0px;" id="eluznqxb42jm8" class="animable"></path></g></g><path d="M189.24,284.36H171.49a1.86,1.86,0,0,1-1.87-2h0a2.08,2.08,0,0,1,2-2h17.75a1.86,1.86,0,0,1,1.87,2h0A2.08,2.08,0,0,1,189.24,284.36Z" style="fill: rgb(152, 24, 198); transform-origin: 180.43px 282.36px 0px;" id="el1xkpf1rmbhg" class="animable"></path><path d="M224.53,284.36H206.78a1.86,1.86,0,0,1-1.87-2h0a2.08,2.08,0,0,1,2.05-2H224.7a1.87,1.87,0,0,1,1.88,2h0A2.08,2.08,0,0,1,224.53,284.36Z" style="fill: rgb(152, 24, 198); transform-origin: 215.745px 282.36px 0px;" id="elmbd7cldqoma" class="animable"></path><path d="M259.82,284.36H242.07a1.87,1.87,0,0,1-1.88-2h0a2.08,2.08,0,0,1,2.05-2H260a1.86,1.86,0,0,1,1.87,2h0A2.07,2.07,0,0,1,259.82,284.36Z" style="fill: rgb(152, 24, 198); transform-origin: 251.03px 282.36px 0px;" id="el5lbv4wa7wi" class="animable"></path><path d="M295.1,284.36H277.35a1.86,1.86,0,0,1-1.87-2h0a2.08,2.08,0,0,1,2-2h17.75a1.86,1.86,0,0,1,1.87,2h0A2.08,2.08,0,0,1,295.1,284.36Z" style="fill: rgb(152, 24, 198); transform-origin: 286.29px 282.36px 0px;" id="elszomcv76yfb" class="animable"></path><path d="M330.39,284.36H312.64a1.86,1.86,0,0,1-1.87-2h0a2.08,2.08,0,0,1,2.05-2h17.75a1.86,1.86,0,0,1,1.87,2h0A2.08,2.08,0,0,1,330.39,284.36Z" style="fill: rgb(152, 24, 198); transform-origin: 321.605px 282.36px 0px;" id="elwz9p4ltp2p" class="animable"></path><path d="M365.68,284.36H347.93a1.86,1.86,0,0,1-1.87-2h0a2.08,2.08,0,0,1,2.05-2h17.74a1.87,1.87,0,0,1,1.88,2h0A2.08,2.08,0,0,1,365.68,284.36Z" style="fill: rgb(152, 24, 198); transform-origin: 356.895px 282.36px 0px;" id="elz3ccn8lvnhl" class="animable"></path><g id="elqurtadidvqj"><g style="opacity: 0.3; transform-origin: 268.675px 282.36px 0px;" class="animable"><path d="M189.24,284.36H171.49a1.86,1.86,0,0,1-1.87-2h0a2.08,2.08,0,0,1,2-2h17.75a1.86,1.86,0,0,1,1.87,2h0A2.08,2.08,0,0,1,189.24,284.36Z" id="elv4lzotbgnxl" style="transform-origin: 180.43px 282.36px 0px;" class="animable"></path><path d="M224.53,284.36H206.78a1.86,1.86,0,0,1-1.87-2h0a2.08,2.08,0,0,1,2.05-2H224.7a1.87,1.87,0,0,1,1.88,2h0A2.08,2.08,0,0,1,224.53,284.36Z" id="elp8qwl06wjyr" style="transform-origin: 215.745px 282.36px 0px;" class="animable"></path><path d="M259.82,284.36H242.07a1.87,1.87,0,0,1-1.88-2h0a2.08,2.08,0,0,1,2.05-2H260a1.86,1.86,0,0,1,1.87,2h0A2.07,2.07,0,0,1,259.82,284.36Z" id="elis126lj8qi" style="transform-origin: 251.03px 282.36px 0px;" class="animable"></path><path d="M295.1,284.36H277.35a1.86,1.86,0,0,1-1.87-2h0a2.08,2.08,0,0,1,2-2h17.75a1.86,1.86,0,0,1,1.87,2h0A2.08,2.08,0,0,1,295.1,284.36Z" id="eljk95ssnlte" style="transform-origin: 286.29px 282.36px 0px;" class="animable"></path><path d="M330.39,284.36H312.64a1.86,1.86,0,0,1-1.87-2h0a2.08,2.08,0,0,1,2.05-2h17.75a1.86,1.86,0,0,1,1.87,2h0A2.08,2.08,0,0,1,330.39,284.36Z" id="el2xryl1awfib" style="transform-origin: 321.605px 282.36px 0px;" class="animable"></path><path d="M365.68,284.36H347.93a1.86,1.86,0,0,1-1.87-2h0a2.08,2.08,0,0,1,2.05-2h17.74a1.87,1.87,0,0,1,1.88,2h0A2.08,2.08,0,0,1,365.68,284.36Z" id="elu19kod1gatc" style="transform-origin: 356.895px 282.36px 0px;" class="animable"></path></g></g><path d="M190.22,322.13H167.1a3.73,3.73,0,0,1-3.74-3.92l1-23.12a4.16,4.16,0,0,1,4.1-3.92h23.12a3.73,3.73,0,0,1,3.74,3.92l-1,23.12A4.17,4.17,0,0,1,190.22,322.13Z" style="fill: rgb(152, 24, 198); transform-origin: 179.34px 306.65px 0px;" id="eljfw5zh1l5hh" class="animable"></path><path d="M225.51,322.13H202.39a3.72,3.72,0,0,1-3.74-3.92l1-23.12a4.16,4.16,0,0,1,4.1-3.92H226.9a3.74,3.74,0,0,1,3.75,3.92l-1.05,23.12A4.15,4.15,0,0,1,225.51,322.13Z" style="fill: rgb(152, 24, 198); transform-origin: 214.649px 306.65px 0px;" id="el10hw93z8g8g" class="animable"></path><path d="M260.79,322.13H237.68a3.74,3.74,0,0,1-3.75-3.92l1-23.12a4.16,4.16,0,0,1,4.1-3.92h23.11a3.72,3.72,0,0,1,3.74,3.92l-1,23.12A4.16,4.16,0,0,1,260.79,322.13Z" style="fill: rgb(152, 24, 198); transform-origin: 249.906px 306.65px 0px;" id="elwii150iw62b" class="animable"></path><path d="M296.08,322.13H273a3.73,3.73,0,0,1-3.75-3.92l1-23.12a4.15,4.15,0,0,1,4.09-3.92h23.12a3.73,3.73,0,0,1,3.74,3.92l-1,23.12A4.16,4.16,0,0,1,296.08,322.13Z" style="fill: rgb(152, 24, 198); transform-origin: 285.225px 306.65px 0px;" id="eldan9bkod73l" class="animable"></path><path d="M331.37,322.13H308.25a3.73,3.73,0,0,1-3.74-3.92l1-23.12a4.16,4.16,0,0,1,4.1-3.92h23.11a3.73,3.73,0,0,1,3.75,3.92l-1,23.12A4.17,4.17,0,0,1,331.37,322.13Z" style="fill: rgb(152, 24, 198); transform-origin: 320.49px 306.65px 0px;" id="elbn52q5lobdc" class="animable"></path><path d="M366.65,322.13H343.54a3.72,3.72,0,0,1-3.74-3.92l1-23.12a4.16,4.16,0,0,1,4.1-3.92h23.11a3.74,3.74,0,0,1,3.75,3.92l-1.05,23.12A4.15,4.15,0,0,1,366.65,322.13Z" style="fill: rgb(152, 24, 198); transform-origin: 355.78px 306.65px 0px;" id="elq6auv1djl7a" class="animable"></path><g id="elol3xs88cle"><g style="opacity: 0.8; transform-origin: 267.56px 306.65px 0px;" class="animable"><path d="M190.22,322.13H167.1a3.73,3.73,0,0,1-3.74-3.92l1-23.12a4.16,4.16,0,0,1,4.1-3.92h23.12a3.73,3.73,0,0,1,3.74,3.92l-1,23.12A4.17,4.17,0,0,1,190.22,322.13Z" style="fill: rgb(250, 250, 250); transform-origin: 179.34px 306.65px 0px;" id="elcpl1aokriiv" class="animable"></path><path d="M225.51,322.13H202.39a3.72,3.72,0,0,1-3.74-3.92l1-23.12a4.16,4.16,0,0,1,4.1-3.92H226.9a3.74,3.74,0,0,1,3.75,3.92l-1.05,23.12A4.15,4.15,0,0,1,225.51,322.13Z" style="fill: rgb(250, 250, 250); transform-origin: 214.649px 306.65px 0px;" id="eln3lbjykd3cm" class="animable"></path><path d="M260.79,322.13H237.68a3.74,3.74,0,0,1-3.75-3.92l1-23.12a4.16,4.16,0,0,1,4.1-3.92h23.11a3.72,3.72,0,0,1,3.74,3.92l-1,23.12A4.16,4.16,0,0,1,260.79,322.13Z" style="fill: rgb(250, 250, 250); transform-origin: 249.906px 306.65px 0px;" id="elmu6zptpskj" class="animable"></path><path d="M296.08,322.13H273a3.73,3.73,0,0,1-3.75-3.92l1-23.12a4.15,4.15,0,0,1,4.09-3.92h23.12a3.73,3.73,0,0,1,3.74,3.92l-1,23.12A4.16,4.16,0,0,1,296.08,322.13Z" style="fill: rgb(250, 250, 250); transform-origin: 285.225px 306.65px 0px;" id="el0qz0v4fyz4r" class="animable"></path><path d="M331.37,322.13H308.25a3.73,3.73,0,0,1-3.74-3.92l1-23.12a4.16,4.16,0,0,1,4.1-3.92h23.11a3.73,3.73,0,0,1,3.75,3.92l-1,23.12A4.17,4.17,0,0,1,331.37,322.13Z" style="fill: rgb(250, 250, 250); transform-origin: 320.49px 306.65px 0px;" id="eluptam0bw3q" class="animable"></path><path d="M366.65,322.13H343.54a3.72,3.72,0,0,1-3.74-3.92l1-23.12a4.16,4.16,0,0,1,4.1-3.92h23.11a3.74,3.74,0,0,1,3.75,3.92l-1.05,23.12A4.15,4.15,0,0,1,366.65,322.13Z" style="fill: rgb(250, 250, 250); transform-origin: 355.78px 306.65px 0px;" id="el4rawxnshkjw" class="animable"></path></g></g><path d="M188.6,358H165.48a3.73,3.73,0,0,1-3.74-3.92l1-23.12a4.17,4.17,0,0,1,4.1-3.92H190a3.73,3.73,0,0,1,3.74,3.92l-1,23.12A4.17,4.17,0,0,1,188.6,358Z" style="fill: rgb(152, 24, 198); transform-origin: 177.74px 342.52px 0px;" id="elc1q7i6id3t5" class="animable"></path><path d="M223.89,358H200.77a3.73,3.73,0,0,1-3.74-3.92l1-23.12a4.16,4.16,0,0,1,4.1-3.92h23.11A3.74,3.74,0,0,1,229,331L228,354.08A4.15,4.15,0,0,1,223.89,358Z" style="fill: rgb(152, 24, 198); transform-origin: 213.016px 342.52px 0px;" id="el093dvl45r4h2" class="animable"></path><path d="M259.17,358H236.06a3.72,3.72,0,0,1-3.74-3.92l1-23.12a4.16,4.16,0,0,1,4.1-3.92h23.11a3.72,3.72,0,0,1,3.74,3.92l-1,23.12A4.16,4.16,0,0,1,259.17,358Z" style="fill: rgb(152, 24, 198); transform-origin: 248.295px 342.52px 0px;" id="el3kqq3pqsy3i" class="animable"></path><path d="M294.46,358H271.35a3.74,3.74,0,0,1-3.75-3.92l1-23.12a4.15,4.15,0,0,1,4.09-3.92h23.12A3.73,3.73,0,0,1,299.6,331l-1,23.12A4.16,4.16,0,0,1,294.46,358Z" style="fill: rgb(152, 24, 198); transform-origin: 283.601px 342.52px 0px;" id="el0lqvcas2qx6" class="animable"></path><path d="M329.75,358H306.63a3.73,3.73,0,0,1-3.74-3.92l1-23.12A4.17,4.17,0,0,1,308,327h23.12a3.73,3.73,0,0,1,3.74,3.92l-1,23.12A4.17,4.17,0,0,1,329.75,358Z" style="fill: rgb(152, 24, 198); transform-origin: 318.875px 342.5px 0px;" id="elddxmma5fd0h" class="animable"></path><path d="M365,358H341.92a3.72,3.72,0,0,1-3.74-3.92l1-23.12a4.16,4.16,0,0,1,4.1-3.92h23.11a3.74,3.74,0,0,1,3.75,3.92l-1.05,23.12A4.15,4.15,0,0,1,365,358Z" style="fill: rgb(152, 24, 198); transform-origin: 354.16px 342.52px 0px;" id="elm2dz7oj200c" class="animable"></path><g id="elxky7xwv69h"><g style="opacity: 0.8; transform-origin: 265.94px 342.5px 0px;" class="animable"><path d="M188.6,358H165.48a3.73,3.73,0,0,1-3.74-3.92l1-23.12a4.17,4.17,0,0,1,4.1-3.92H190a3.73,3.73,0,0,1,3.74,3.92l-1,23.12A4.17,4.17,0,0,1,188.6,358Z" style="fill: rgb(250, 250, 250); transform-origin: 177.74px 342.52px 0px;" id="el9vd5ukchxzg" class="animable"></path><path d="M223.89,358H200.77a3.73,3.73,0,0,1-3.74-3.92l1-23.12a4.16,4.16,0,0,1,4.1-3.92h23.11A3.74,3.74,0,0,1,229,331L228,354.08A4.15,4.15,0,0,1,223.89,358Z" style="fill: rgb(250, 250, 250); transform-origin: 213.016px 342.52px 0px;" id="elwq7z51d4grf" class="animable"></path><path d="M259.17,358H236.06a3.72,3.72,0,0,1-3.74-3.92l1-23.12a4.16,4.16,0,0,1,4.1-3.92h23.11a3.72,3.72,0,0,1,3.74,3.92l-1,23.12A4.16,4.16,0,0,1,259.17,358Z" style="fill: rgb(250, 250, 250); transform-origin: 248.295px 342.52px 0px;" id="elmvlp97sgdtp" class="animable"></path><path d="M294.46,358H271.35a3.74,3.74,0,0,1-3.75-3.92l1-23.12a4.15,4.15,0,0,1,4.09-3.92h23.12A3.73,3.73,0,0,1,299.6,331l-1,23.12A4.16,4.16,0,0,1,294.46,358Z" style="fill: rgb(250, 250, 250); transform-origin: 283.601px 342.52px 0px;" id="el7xrbfo80ouf" class="animable"></path><path d="M329.75,358H306.63a3.73,3.73,0,0,1-3.74-3.92l1-23.12A4.17,4.17,0,0,1,308,327h23.12a3.73,3.73,0,0,1,3.74,3.92l-1,23.12A4.17,4.17,0,0,1,329.75,358Z" style="fill: rgb(250, 250, 250); transform-origin: 318.875px 342.5px 0px;" id="el7srdsufplsp" class="animable"></path><path d="M365,358H341.92a3.72,3.72,0,0,1-3.74-3.92l1-23.12a4.16,4.16,0,0,1,4.1-3.92h23.11a3.74,3.74,0,0,1,3.75,3.92l-1.05,23.12A4.15,4.15,0,0,1,365,358Z" style="fill: rgb(250, 250, 250); transform-origin: 354.16px 342.52px 0px;" id="elrucirk43pr9" class="animable"></path></g></g><path d="M187,393.86H163.86a3.72,3.72,0,0,1-3.74-3.92l1-23.11a4.16,4.16,0,0,1,4.1-3.92h23.12a3.72,3.72,0,0,1,3.74,3.92l-1,23.11A4.15,4.15,0,0,1,187,393.86Z" style="fill: rgb(152, 24, 198); transform-origin: 176.1px 378.385px 0px;" id="elj9b4dbown6" class="animable"></path><path d="M222.27,393.86H199.15a3.72,3.72,0,0,1-3.74-3.92l1-23.11a4.15,4.15,0,0,1,4.1-3.92h23.11a3.72,3.72,0,0,1,3.75,3.92l-1,23.11A4.14,4.14,0,0,1,222.27,393.86Z" style="fill: rgb(152, 24, 198); transform-origin: 211.39px 378.385px 0px;" id="elrxglxya9tn" class="animable"></path><path d="M257.55,393.86H234.44a3.72,3.72,0,0,1-3.74-3.92l1-23.11a4.15,4.15,0,0,1,4.1-3.92H259a3.73,3.73,0,0,1,3.75,3.92l-1.05,23.11A4.15,4.15,0,0,1,257.55,393.86Z" style="fill: rgb(152, 24, 198); transform-origin: 246.725px 378.385px 0px;" id="el1cmzjzp6o8j" class="animable"></path><path d="M292.84,393.86H269.73a3.73,3.73,0,0,1-3.75-3.92l1-23.11a4.14,4.14,0,0,1,4.09-3.92h23.12a3.72,3.72,0,0,1,3.74,3.92l-1,23.11A4.15,4.15,0,0,1,292.84,393.86Z" style="fill: rgb(152, 24, 198); transform-origin: 281.955px 378.385px 0px;" id="el5uvmf0u3var" class="animable"></path><path d="M328.13,393.86H305a3.72,3.72,0,0,1-3.74-3.92l1-23.11a4.16,4.16,0,0,1,4.1-3.92h23.12a3.72,3.72,0,0,1,3.74,3.92l-1,23.11A4.16,4.16,0,0,1,328.13,393.86Z" style="fill: rgb(152, 24, 198); transform-origin: 317.24px 378.385px 0px;" id="elewwaft0melh" class="animable"></path><path d="M363.42,393.86H340.3a3.72,3.72,0,0,1-3.74-3.92l1-23.11a4.15,4.15,0,0,1,4.1-3.92h23.11a3.73,3.73,0,0,1,3.75,3.92l-1.05,23.11A4.14,4.14,0,0,1,363.42,393.86Z" style="fill: rgb(152, 24, 198); transform-origin: 352.54px 378.385px 0px;" id="el89c2bbyykfv" class="animable"></path><g id="el1q0937ujzxe"><g style="opacity: 0.8; transform-origin: 264.32px 378.385px 0px;" class="animable"><path d="M187,393.86H163.86a3.72,3.72,0,0,1-3.74-3.92l1-23.11a4.16,4.16,0,0,1,4.1-3.92h23.12a3.72,3.72,0,0,1,3.74,3.92l-1,23.11A4.15,4.15,0,0,1,187,393.86Z" style="fill: rgb(250, 250, 250); transform-origin: 176.1px 378.385px 0px;" id="elel13m5ayhzq" class="animable"></path><path d="M222.27,393.86H199.15a3.72,3.72,0,0,1-3.74-3.92l1-23.11a4.15,4.15,0,0,1,4.1-3.92h23.11a3.72,3.72,0,0,1,3.75,3.92l-1,23.11A4.14,4.14,0,0,1,222.27,393.86Z" style="fill: rgb(250, 250, 250); transform-origin: 211.39px 378.385px 0px;" id="elnqj83lhcap" class="animable"></path><path d="M257.55,393.86H234.44a3.72,3.72,0,0,1-3.74-3.92l1-23.11a4.15,4.15,0,0,1,4.1-3.92H259a3.73,3.73,0,0,1,3.75,3.92l-1.05,23.11A4.15,4.15,0,0,1,257.55,393.86Z" style="fill: rgb(250, 250, 250); transform-origin: 246.725px 378.385px 0px;" id="elhg2lx1ys62j" class="animable"></path><path d="M292.84,393.86H269.73a3.73,3.73,0,0,1-3.75-3.92l1-23.11a4.14,4.14,0,0,1,4.09-3.92h23.12a3.72,3.72,0,0,1,3.74,3.92l-1,23.11A4.15,4.15,0,0,1,292.84,393.86Z" style="fill: rgb(250, 250, 250); transform-origin: 281.955px 378.385px 0px;" id="elu3k0q9kktgn" class="animable"></path><path d="M328.13,393.86H305a3.72,3.72,0,0,1-3.74-3.92l1-23.11a4.16,4.16,0,0,1,4.1-3.92h23.12a3.72,3.72,0,0,1,3.74,3.92l-1,23.11A4.16,4.16,0,0,1,328.13,393.86Z" style="fill: rgb(250, 250, 250); transform-origin: 317.24px 378.385px 0px;" id="el4is8v3x1yax" class="animable"></path><path d="M363.42,393.86H340.3a3.72,3.72,0,0,1-3.74-3.92l1-23.11a4.15,4.15,0,0,1,4.1-3.92h23.11a3.73,3.73,0,0,1,3.75,3.92l-1.05,23.11A4.14,4.14,0,0,1,363.42,393.86Z" style="fill: rgb(250, 250, 250); transform-origin: 352.54px 378.385px 0px;" id="elppbvz6y3u6" class="animable"></path></g></g><path d="M180.45,272.44c-8.52,0-15.2-9.91-15.2-22.56s6.68-22.55,15.2-22.55,15.21,9.91,15.21,22.55a2.34,2.34,0,0,1-4.67,0c0-9.69-4.82-17.89-10.54-17.89s-10.54,8.2-10.54,17.89,4.83,17.89,10.54,17.89a2.34,2.34,0,1,1,0,4.67Z" style="fill: rgb(152, 24, 198); transform-origin: 180.455px 249.888px 0px;" id="el81n8k8gq2mj" class="animable"></path><path d="M215.74,272.44c-8.52,0-15.2-9.91-15.2-22.56s6.68-22.55,15.2-22.55S231,237.24,231,249.88a2.34,2.34,0,0,1-4.67,0c0-9.69-4.82-17.89-10.54-17.89s-10.54,8.2-10.54,17.89,4.83,17.89,10.54,17.89a2.34,2.34,0,0,1,0,4.67Z" style="fill: rgb(152, 24, 198); transform-origin: 215.77px 249.885px 0px;" id="elhf0qlqxquq" class="animable"></path><path d="M251,272.44c-8.53,0-15.21-9.91-15.21-22.56s6.68-22.55,15.21-22.55,15.2,9.91,15.2,22.55a2.33,2.33,0,0,1-4.66,0c0-9.69-4.83-17.89-10.54-17.89s-10.54,8.2-10.54,17.89,4.83,17.89,10.54,17.89a2.34,2.34,0,0,1,0,4.67Z" style="fill: rgb(152, 24, 198); transform-origin: 250.995px 249.885px 0px;" id="eleong41wn1rr" class="animable"></path><path d="M286.32,272.44c-8.53,0-15.21-9.91-15.21-22.56s6.68-22.55,15.21-22.55,15.2,9.91,15.2,22.55a2.33,2.33,0,0,1-4.66,0c0-9.69-4.83-17.89-10.54-17.89s-10.54,8.2-10.54,17.89,4.82,17.89,10.54,17.89a2.34,2.34,0,0,1,0,4.67Z" style="fill: rgb(152, 24, 198); transform-origin: 286.315px 249.885px 0px;" id="elqz0w9bust5" class="animable"></path><path d="M321.6,272.44c-8.52,0-15.2-9.91-15.2-22.56s6.68-22.55,15.2-22.55,15.21,9.91,15.21,22.55a2.34,2.34,0,0,1-4.67,0c0-9.69-4.82-17.89-10.54-17.89s-10.54,8.2-10.54,17.89,4.83,17.89,10.54,17.89a2.34,2.34,0,1,1,0,4.67Z" style="fill: rgb(152, 24, 198); transform-origin: 321.605px 249.888px 0px;" id="elzstsud3xrnf" class="animable"></path><path d="M356.89,272.44c-8.52,0-15.2-9.91-15.2-22.56s6.68-22.55,15.2-22.55,15.21,9.91,15.21,22.55a2.34,2.34,0,0,1-4.67,0c0-9.69-4.83-17.89-10.54-17.89s-10.54,8.2-10.54,17.89,4.83,17.89,10.54,17.89a2.34,2.34,0,0,1,0,4.67Z" style="fill: rgb(152, 24, 198); transform-origin: 356.895px 249.885px 0px;" id="eltnlbmodhxi" class="animable"></path><g id="elj6csmsvlmo"><g style="opacity: 0.3; transform-origin: 268.675px 249.888px 0px;" class="animable"><path d="M180.45,272.44c-8.52,0-15.2-9.91-15.2-22.56s6.68-22.55,15.2-22.55,15.21,9.91,15.21,22.55a2.34,2.34,0,0,1-4.67,0c0-9.69-4.82-17.89-10.54-17.89s-10.54,8.2-10.54,17.89,4.83,17.89,10.54,17.89a2.34,2.34,0,1,1,0,4.67Z" id="el7asy47py52h" style="transform-origin: 180.455px 249.888px 0px;" class="animable"></path><path d="M215.74,272.44c-8.52,0-15.2-9.91-15.2-22.56s6.68-22.55,15.2-22.55S231,237.24,231,249.88a2.34,2.34,0,0,1-4.67,0c0-9.69-4.82-17.89-10.54-17.89s-10.54,8.2-10.54,17.89,4.83,17.89,10.54,17.89a2.34,2.34,0,0,1,0,4.67Z" id="els3mtx9vyni" style="transform-origin: 215.77px 249.885px 0px;" class="animable"></path><path d="M251,272.44c-8.53,0-15.21-9.91-15.21-22.56s6.68-22.55,15.21-22.55,15.2,9.91,15.2,22.55a2.33,2.33,0,0,1-4.66,0c0-9.69-4.83-17.89-10.54-17.89s-10.54,8.2-10.54,17.89,4.83,17.89,10.54,17.89a2.34,2.34,0,0,1,0,4.67Z" id="elsr9o4qewc5f" style="transform-origin: 250.995px 249.885px 0px;" class="animable"></path><path d="M286.32,272.44c-8.53,0-15.21-9.91-15.21-22.56s6.68-22.55,15.21-22.55,15.2,9.91,15.2,22.55a2.33,2.33,0,0,1-4.66,0c0-9.69-4.83-17.89-10.54-17.89s-10.54,8.2-10.54,17.89,4.82,17.89,10.54,17.89a2.34,2.34,0,0,1,0,4.67Z" id="el2smc8wh8ede" style="transform-origin: 286.315px 249.885px 0px;" class="animable"></path><path d="M321.6,272.44c-8.52,0-15.2-9.91-15.2-22.56s6.68-22.55,15.2-22.55,15.21,9.91,15.21,22.55a2.34,2.34,0,0,1-4.67,0c0-9.69-4.82-17.89-10.54-17.89s-10.54,8.2-10.54,17.89,4.83,17.89,10.54,17.89a2.34,2.34,0,1,1,0,4.67Z" id="el18k7azgln13" style="transform-origin: 321.605px 249.888px 0px;" class="animable"></path><path d="M356.89,272.44c-8.52,0-15.2-9.91-15.2-22.56s6.68-22.55,15.2-22.55,15.21,9.91,15.21,22.55a2.34,2.34,0,0,1-4.67,0c0-9.69-4.83-17.89-10.54-17.89s-10.54,8.2-10.54,17.89,4.83,17.89,10.54,17.89a2.34,2.34,0,0,1,0,4.67Z" id="elajexdvzb87d" style="transform-origin: 356.895px 249.885px 0px;" class="animable"></path></g></g><path d="M288.68,323.42c-8.16-1.62-17.32.27-20.59,8.87-2.63,6.92.74,14.42,8,16.25,6.4,1.61,17.44-.36,19.72-7.74,2.61-8.44-8-11.18-13.95-11.68-1.79-.15-1.78,2.65,0,2.8,2.71.23,5.81.38,8.21,1.87,5,3.13,2.94,8.15-1.32,10.55s-10.79,3-15,.34c-4.6-2.93-4.75-9.37-2-13.57,3.61-5.55,10.2-6.17,16.14-5,1.76.35,2.51-2.35.74-2.7Z" style="fill: rgb(152, 24, 198); transform-origin: 281.709px 335.979px 0px;" id="el18f1me6cj72" class="animable"></path><g id="elx50apw6g5o"><path d="M288.68,323.42c-8.16-1.62-17.32.27-20.59,8.87-2.63,6.92.74,14.42,8,16.25,6.4,1.61,17.44-.36,19.72-7.74,2.61-8.44-8-11.18-13.95-11.68-1.79-.15-1.78,2.65,0,2.8,2.71.23,5.81.38,8.21,1.87,5,3.13,2.94,8.15-1.32,10.55s-10.79,3-15,.34c-4.6-2.93-4.75-9.37-2-13.57,3.61-5.55,10.2-6.17,16.14-5,1.76.35,2.51-2.35.74-2.7Z" style="fill: rgb(250, 250, 250); opacity: 0.1; transform-origin: 281.709px 335.979px 0px;" class="animable"></path></g><path d="M198.65,291.21a220.55,220.55,0,0,0,26,28.8c1.32,1.23,3.31-.75,2-2a217.28,217.28,0,0,1-25.57-28.23c-1.07-1.42-3.5,0-2.41,1.41Z" style="fill: rgb(152, 24, 198); transform-origin: 212.737px 304.795px 0px;" id="elevmkvjztfe8" class="animable"></path><path d="M201.54,318.84c5.9-10.49,16.23-19.44,26-26.29,1.46-1,.07-3.46-1.41-2.42-10.16,7.14-20.84,16.36-27,27.29a1.4,1.4,0,0,0,2.41,1.42Z" style="fill: rgb(152, 24, 198); transform-origin: 213.563px 304.678px 0px;" id="elxel2vv7ta7" class="animable"></path><g id="elbo82s6kfnl"><g style="opacity: 0.2; transform-origin: 213.277px 304.795px 0px;" class="animable"><path d="M198.65,291.21a220.55,220.55,0,0,0,26,28.8c1.32,1.23,3.31-.75,2-2a217.28,217.28,0,0,1-25.57-28.23c-1.07-1.42-3.5,0-2.41,1.41Z" id="elm5rc934khrr" style="transform-origin: 212.737px 304.795px 0px;" class="animable"></path><path d="M201.54,318.84c5.9-10.49,16.23-19.44,26-26.29,1.46-1,.07-3.46-1.41-2.42-10.16,7.14-20.84,16.36-27,27.29a1.4,1.4,0,0,0,2.41,1.42Z" id="elxilafrv66zq" style="transform-origin: 213.563px 304.678px 0px;" class="animable"></path></g></g><path d="M309.87,300.16h18.25a1.4,1.4,0,0,0,0-2.79H309.87a1.4,1.4,0,0,0,0,2.79Z" style="fill: rgb(152, 24, 198); transform-origin: 318.995px 298.765px 0px;" id="elq582o1daqxo" class="animable"></path><path d="M309.66,305.35h10.58a1.4,1.4,0,0,0,0-2.8H309.66a1.4,1.4,0,0,0,0,2.8Z" style="fill: rgb(152, 24, 198); transform-origin: 314.95px 303.95px 0px;" id="el6ohdp4o21o" class="animable"></path><g id="elok6z2e1g96"><g style="opacity: 0.1; transform-origin: 318.833px 301.36px 0px;" class="animable"><path d="M309.87,300.16h18.25a1.4,1.4,0,0,0,0-2.79H309.87a1.4,1.4,0,0,0,0,2.79Z" style="fill: rgb(250, 250, 250); transform-origin: 318.995px 298.765px 0px;" id="elczb10oht9wg" class="animable"></path><path d="M309.66,305.35h10.58a1.4,1.4,0,0,0,0-2.8H309.66a1.4,1.4,0,0,0,0,2.8Z" style="fill: rgb(250, 250, 250); transform-origin: 314.95px 303.95px 0px;" id="eldmiascacl2w" class="animable"></path></g></g><path d="M200.56,371.8h15.65a1.4,1.4,0,0,0,0-2.8H200.56a1.4,1.4,0,0,0,0,2.8Z" style="fill: rgb(152, 24, 198); transform-origin: 208.385px 370.4px 0px;" id="elag9ygdaqs8" class="animable"></path><path d="M200,377.81H220.3a1.4,1.4,0,0,0,0-2.8H200a1.4,1.4,0,0,0,0,2.8Z" style="fill: rgb(152, 24, 198); transform-origin: 210.15px 376.41px 0px;" id="elu02j4elogg" class="animable"></path><path d="M200,384h10.15a1.4,1.4,0,0,0,0-2.8H200a1.4,1.4,0,0,0,0,2.8Z" style="fill: rgb(152, 24, 198); transform-origin: 205.075px 382.6px 0px;" id="eltyrieb1cuus" class="animable"></path><g id="elq4dqjanpg3"><g style="opacity: 0.1; transform-origin: 210.15px 376.5px 0px;" class="animable"><path d="M200.56,371.8h15.65a1.4,1.4,0,0,0,0-2.8H200.56a1.4,1.4,0,0,0,0,2.8Z" style="fill: rgb(250, 250, 250); transform-origin: 208.385px 370.4px 0px;" id="elpde0mucilz9" class="animable"></path><path d="M200,377.81H220.3a1.4,1.4,0,0,0,0-2.8H200a1.4,1.4,0,0,0,0,2.8Z" style="fill: rgb(250, 250, 250); transform-origin: 210.15px 376.41px 0px;" id="elrgnub6ul0un" class="animable"></path><path d="M200,384h10.15a1.4,1.4,0,0,0,0-2.8H200a1.4,1.4,0,0,0,0,2.8Z" style="fill: rgb(250, 250, 250); transform-origin: 205.075px 382.6px 0px;" id="eli3jchrb2jet" class="animable"></path></g></g></g><g id="freepik--Character--inject-147" style="transform-origin: 141.084px 265.035px 0px;" class="animable animator-active"><path d="M90.19,214.79l4.73-.21-2.14,9a24.77,24.77,0,0,1-4.58-4.05,2.29,2.29,0,0,1,.24-3.21Z" style="fill: rgb(228, 137, 123); transform-origin: 91.2872px 219.08px 0px;" id="elyss0zeka87r" class="animable"></path><polygon points="100.41 219.43 98.29 226.75 92.78 223.56 94.92 214.58 100.41 219.43" style="fill: rgb(228, 137, 123); transform-origin: 96.595px 220.665px 0px;" id="elv989us7yub" class="animable"></polygon><g id="el6rdehax0iu7"><rect x="100.88" y="175.91" width="9.72" height="240.77" style="fill: rgb(152, 24, 198); transform-origin: 105.74px 296.295px 0px; transform: rotate(-5.29deg);" class="animable"></rect></g><g id="elgcbjirh9tl"><rect x="100.88" y="175.91" width="9.72" height="240.77" style="opacity: 0.3; transform-origin: 105.74px 296.295px 0px; transform: rotate(-5.29deg);" class="animable"></rect></g><g id="elld22m9ts02"><rect x="120.24" y="174.11" width="9.72" height="240.77" style="fill: rgb(152, 24, 198); transform-origin: 125.1px 294.495px 0px; transform: rotate(-5.29deg);" class="animable"></rect></g><g id="elsikkiyrxzu"><rect x="120.24" y="174.11" width="9.72" height="240.77" style="opacity: 0.3; transform-origin: 125.1px 294.495px 0px; transform: rotate(-5.29deg);" class="animable"></rect></g><g id="el03gol5acu18j"><rect x="110.56" y="175.01" width="9.72" height="240.77" style="fill: rgb(152, 24, 198); transform-origin: 115.42px 295.395px 0px; transform: rotate(-5.29deg);" class="animable"></rect></g><g id="eley2yn623l3"><rect x="110.56" y="175.01" width="9.72" height="240.77" style="opacity: 0.1; transform-origin: 115.42px 295.395px 0px; transform: rotate(-5.29deg);" class="animable"></rect></g><polygon points="107.12 158.31 98.41 159.12 89.8 176.87 118.84 174.18 107.12 158.31" style="fill: rgb(152, 24, 198); transform-origin: 104.32px 167.59px 0px;" id="el1iikkwurbo8" class="animable"></polygon><g id="el6w33b6qx46q"><g style="opacity: 0.8; transform-origin: 104.32px 167.59px 0px;" class="animable"><polygon points="107.12 158.31 98.41 159.12 89.8 176.87 118.84 174.18 107.12 158.31" style="fill: rgb(250, 250, 250); transform-origin: 104.32px 167.59px 0px;" id="eljrnw4s014q" class="animable"></polygon></g></g><polygon points="102.1 151.51 98.41 159.12 107.12 158.31 102.1 151.51" style="fill: rgb(38, 50, 56); transform-origin: 102.765px 155.315px 0px;" id="elzzzjc1h46i" class="animable"></polygon><path d="M175.28,165.06c1,1,1.83,1.95,2.69,3s1.68,2,2.5,3c1.65,2,3.19,4.11,4.69,6.26a74,74,0,0,1,7.78,14c.25.64.48,1.31.72,2l.36,1a9.91,9.91,0,0,1,.42,1.84,12.5,12.5,0,0,1-.77,5.87,27.8,27.8,0,0,1-4.48,7.6,62.34,62.34,0,0,1-11.44,10.85l-3.77-4a105.36,105.36,0,0,0,8.12-11.69,22,22,0,0,0,2.44-5.59,2.78,2.78,0,0,0,.05-1.49s0,0,0,0l-.34-.74c-.23-.49-.43-1-.68-1.48a78.26,78.26,0,0,0-7.4-11.69c-1.4-1.91-2.88-3.77-4.38-5.63-.75-.92-1.51-1.84-2.29-2.74l-2.28-2.63Z" style="fill: rgb(228, 137, 123); transform-origin: 180.867px 192.77px 0px;" id="el30m2urqfthl" class="animable"></path><polygon points="167.93 219.53 172.19 227.96 176.36 224.37 172.94 218.38 167.93 219.53" style="fill: rgb(228, 137, 123); transform-origin: 172.145px 223.17px 0px;" id="eluf2emg9r9h" class="animable"></polygon><path d="M135.84,170q-3.89,7.41-8.08,14.65c-1.37,2.43-2.81,4.82-4.21,7.23l-2.15,3.6-.54.9c-.27.43-.57.94-.84,1.28s-.54.75-.8,1.06-.54.66-.8.95a74.52,74.52,0,0,1-6.44,6.22c-2.19,1.87-4.38,3.69-6.64,5.42-4.47,3.49-9.06,6.74-13.82,9.84l-3.43-4.32,11.85-11.67c1.94-2,3.9-3.88,5.75-5.86a70.18,70.18,0,0,0,5.13-5.88q.29-.36.51-.69c.17-.24.29-.44.41-.64a4.7,4.7,0,0,0,.28-.5l.46-.93,1.85-3.77c1.27-2.49,2.51-5,3.8-7.47q3.83-7.47,8-14.77Z" style="fill: rgb(228, 137, 123); transform-origin: 111.965px 192.9px 0px;" id="el6jzb74w1z8r" class="animable"></path><path d="M163.91,136.22c-.13.58.08,1.13.45,1.23s.78-.3.91-.88-.09-1.13-.46-1.23S164,135.64,163.91,136.22Z" style="fill: rgb(38, 50, 56); transform-origin: 164.589px 136.395px 0px;" id="el29arznwh8ku" class="animable"></path><path d="M163.93,137.34a22.24,22.24,0,0,0,1.7,5.65,3.39,3.39,0,0,1-2.86-.17Z" style="fill: rgb(222, 87, 83); transform-origin: 164.2px 140.284px 0px;" id="el867lhxnp0d8" class="animable"></path><path d="M165.44,132.7a.36.36,0,0,1-.2-.06,2.67,2.67,0,0,0-2.48-.16.36.36,0,0,1-.46-.19.36.36,0,0,1,.19-.46,3.41,3.41,0,0,1,3.15.24.34.34,0,0,1,.09.48A.35.35,0,0,1,165.44,132.7Z" style="fill: rgb(38, 50, 56); transform-origin: 164.034px 132.127px 0px;" id="elw5dko4wc6j8" class="animable"></path><path d="M143.68,138.43c1.26,5.38,2.69,15.22-.93,18.81,0,0,1.68,5.45,11.67,5.45,11,0,5-5.45,5-5.45-6.05-1.43-6.07-5.88-5.19-10.05Z" style="fill: rgb(228, 137, 123); transform-origin: 151.902px 150.56px 0px;" id="elro8pxv67t4k" class="animable"></path><path d="M141.39,159.11c-.86-1.72-1.8-3.7,0-4.32,1.94-.68,12.71-1.37,16.48-.1a4,4,0,0,1,2.86,4.78Z" style="fill: rgb(152, 24, 198); transform-origin: 150.6px 156.725px 0px;" id="eldweuy936jfa" class="animable"></path><g id="el3e1ngvbxxk5"><path d="M141.39,159.11c-.86-1.72-1.8-3.7,0-4.32,1.94-.68,12.71-1.37,16.48-.1a4,4,0,0,1,2.86,4.78Z" style="fill: rgb(250, 250, 250); opacity: 0.6; transform-origin: 150.6px 156.725px 0px;" class="animable"></path></g><path d="M127,410a9.34,9.34,0,0,1-1.92-.21.16.16,0,0,1-.13-.13.18.18,0,0,1,.07-.18c.08-.06,2-1.44,3.12-1.2a.83.83,0,0,1,.58.41.69.69,0,0,1,0,.83C128.48,409.91,127.75,410,127,410Zm-1.43-.46c1.1.18,2.6.18,2.9-.23,0,0,.12-.16-.05-.45a.49.49,0,0,0-.35-.24A4.59,4.59,0,0,0,125.57,409.56Z" style="fill: rgb(250, 250, 250); transform-origin: 126.903px 409.126px 0px;" id="elm031whha7gs" class="animable"></path><path d="M125.12,409.82l-.09,0a.16.16,0,0,1-.08-.15c0-.09.09-2.21.92-2.91a.93.93,0,0,1,.74-.23.58.58,0,0,1,.57.47c.16.82-1.24,2.42-2,2.83Zm1.37-3a.6.6,0,0,0-.39.15,4.06,4.06,0,0,0-.78,2.31c.72-.57,1.61-1.78,1.52-2.26,0-.05,0-.17-.27-.2Z" style="fill: rgb(250, 250, 250); transform-origin: 126.071px 408.176px 0px;" id="elfu8j32cq9dv" class="animable"></path><path d="M171.12,410a12.3,12.3,0,0,1-2.26-.21.17.17,0,0,1-.14-.14.18.18,0,0,1,.08-.18c.37-.21,3.63-2.08,4.42-.79a.67.67,0,0,1,0,.77C173,409.89,172.06,410,171.12,410Zm-1.71-.47c1.38.2,3.24.17,3.56-.28,0,0,.1-.14-.05-.39C172.48,408.15,170.5,409,169.41,409.55Z" style="fill: rgb(250, 250, 250); transform-origin: 171.03px 409.115px 0px;" id="el8zmlizpoocs" class="animable"></path><path d="M168.89,409.82a.19.19,0,0,1-.1,0,.17.17,0,0,1-.07-.16c0-.08.12-2.06,1-2.83a1.2,1.2,0,0,1,1-.3c.49.05.63.3.66.5.14.85-1.53,2.4-2.41,2.8Zm1.68-3a.87.87,0,0,0-.6.23,3.88,3.88,0,0,0-.87,2.27c.88-.54,2-1.77,1.93-2.28,0-.05,0-.18-.36-.22Z" style="fill: rgb(250, 250, 250); transform-origin: 170.053px 408.172px 0px;" id="el10iu1qivabbb" class="animable"></path><polygon points="160.81 409.64 168.16 409.64 168.23 392.63 160.89 392.63 160.81 409.64" style="fill: rgb(228, 137, 123); transform-origin: 164.52px 401.135px 0px;" id="elf3sm249yfz" class="animable"></polygon><polygon points="116.7 409.64 124.05 409.64 127.09 392.63 119.74 392.63 116.7 409.64" style="fill: rgb(228, 137, 123); transform-origin: 121.895px 401.135px 0px;" id="elk555aq1vavo" class="animable"></polygon><path d="M124.54,408.79h-8.25a.61.61,0,0,0-.61.51l-1.2,6.53a1.13,1.13,0,0,0,1.13,1.3c2.88-.05,4.27-.22,7.9-.22,2.23,0,6.84.24,9.93.24s3.36-3,2.09-3.33c-5.71-1.24-7.91-2.95-9.78-4.57A1.83,1.83,0,0,0,124.54,408.79Z" style="fill: rgb(38, 50, 56); transform-origin: 125.355px 412.97px 0px;" id="elmk9ts0cbei" class="animable"></path><path d="M168.08,408.79h-8a.61.61,0,0,0-.61.51l-1.2,6.53a1.11,1.11,0,0,0,1.11,1.3c2.89-.05,7.06-.22,10.7-.22,4.26,0,7.94.24,12.93.24,3,0,3.73-3,2.46-3.33-5.8-1.26-10.5-1.39-15.58-4.45A3.46,3.46,0,0,0,168.08,408.79Z" style="fill: rgb(38, 50, 56); transform-origin: 172.16px 412.97px 0px;" id="elmm3yildcn5f" class="animable"></path><path d="M128.74,158.9c-6.83,1.58-14,20.35-14,20.35l14.19,9.48a110.51,110.51,0,0,0,8.54-15.53C141.22,164.61,135.71,157.29,128.74,158.9Z" style="fill: rgb(152, 24, 198); transform-origin: 126.712px 173.703px 0px;" id="elprrk1uiwitl" class="animable"></path><g id="el1nabgs3jvmf"><path d="M128.74,158.9c-6.83,1.58-14,20.35-14,20.35l14.19,9.48a110.51,110.51,0,0,0,8.54-15.53C141.22,164.61,135.71,157.29,128.74,158.9Z" style="opacity: 0.7; transform-origin: 126.712px 173.703px 0px;" class="animable"></path></g><path d="M134.13,170.87l-5.87,17.41.67.45s2.68-4,5.53-9.33Z" style="fill: rgb(152, 24, 198); transform-origin: 131.36px 179.8px 0px;" id="elmqd8hqqjwn" class="animable"></path><g id="elk9v3gs224h"><path d="M134.13,170.87l-5.87,17.41.67.45s2.68-4,5.53-9.33Z" style="opacity: 0.8; transform-origin: 131.36px 179.8px 0px;" class="animable"></path></g><path d="M174.57,191.72c-.06,8.2-.55,18.4-1.77,31.06H133.5c-.51-6,2.15-35.46-4.76-63.88a101.07,101.07,0,0,1,13.09-1.66,145.28,145.28,0,0,1,16.7,0,74.84,74.84,0,0,1,11.37,2s3.36,3.64,4.38,20.71C174.48,183.36,174.59,187.24,174.57,191.72Z" style="fill: rgb(152, 24, 198); transform-origin: 151.656px 189.89px 0px;" id="elqmunn5md6u" class="animable"></path><g id="el6v1qdbnkcu"><path d="M174.57,191.72c-.06,8.2-.55,18.4-1.77,31.06H133.5c-.51-6,2.15-35.46-4.76-63.88a101.07,101.07,0,0,1,13.09-1.66,145.28,145.28,0,0,1,16.7,0,74.84,74.84,0,0,1,11.37,2s3.36,3.64,4.38,20.71C174.48,183.36,174.59,187.24,174.57,191.72Z" style="opacity: 0.7; transform-origin: 151.656px 189.89px 0px;" class="animable"></path></g><path d="M174.57,191.72c-2.38-4.34-6.7-13.05-6.09-18l5.8,6.28C174.48,183.36,174.59,187.24,174.57,191.72Z" style="fill: rgb(152, 24, 198); transform-origin: 171.497px 182.72px 0px;" id="elrvk82d1aum" class="animable"></path><g id="elsfsb3ph06jr"><path d="M174.57,191.72c-2.38-4.34-6.7-13.05-6.09-18l5.8,6.28C174.48,183.36,174.59,187.24,174.57,191.72Z" style="opacity: 0.8; transform-origin: 171.497px 182.72px 0px;" class="animable"></path></g><path d="M162.2,165.92c-.62,7,15.25,23.84,15.25,23.84l12.72-10.36a82,82,0,0,0-11.89-15.5C170.84,156.71,162.9,158.08,162.2,165.92Z" style="fill: rgb(152, 24, 198); transform-origin: 176.176px 174.481px 0px;" id="elsryymghy53k" class="animable"></path><g id="elcpf3ln75hz"><path d="M162.2,165.92c-.62,7,15.25,23.84,15.25,23.84l12.72-10.36a82,82,0,0,0-11.89-15.5C170.84,156.71,162.9,158.08,162.2,165.92Z" style="opacity: 0.7; transform-origin: 176.176px 174.481px 0px;" class="animable"></path></g><polygon points="168.23 392.64 168.19 401.4 160.85 401.4 160.88 392.64 168.23 392.64" style="fill: rgb(206, 111, 100); transform-origin: 164.54px 397.02px 0px;" id="el78e4wx2g0u5" class="animable"></polygon><polygon points="119.74 392.64 127.09 392.64 125.52 401.4 118.17 401.4 119.74 392.64" style="fill: rgb(206, 111, 100); transform-origin: 122.63px 397.02px 0px;" id="elzkgc003ihfk" class="animable"></polygon><path d="M145,130.15c-1.07,7.24-2.06,11.4.72,16a9.49,9.49,0,0,0,16.79-.89c2.87-6,4.15-16.84-2.16-21.42A9.58,9.58,0,0,0,145,130.15Z" style="fill: rgb(228, 137, 123); transform-origin: 154.397px 136.32px 0px;" id="elaxbmm0t3iz" class="animable"></path><path d="M166.75,126.72a18.26,18.26,0,0,1-7,2.15c-1.83,8.37-6.7,18-14.58,15.23-3-1-6-8.27-6.31-14.72-.52.63-.87,1.45-1.14,1.79a16.28,16.28,0,0,1,.94-8.5c2.18-6.18,3.63-2.08,6-5.83,1.53-2.48,4.25-3.76,9-3.92-1.33.69-1.58,1.8.39,1.64s10.38-.62,15.28,2.69c-3.31.75-1.29,6,3.13,3.2C170.85,123.06,168.85,125.54,166.75,126.72Z" style="fill: rgb(38, 50, 56); transform-origin: 154.992px 128.753px 0px;" id="eloz5fb2vuvfs" class="animable"></path><path d="M154.09,134.63a8.62,8.62,0,0,0,1.76,5.09c1.49,1.92,3.2,1,3.61-1.16.36-1.92,0-5.24-1.86-6.4S154.08,132.43,154.09,134.63Z" style="fill: rgb(228, 137, 123); transform-origin: 156.837px 136.257px 0px;" id="elqgfvel12lfg" class="animable"></path><path d="M145.13,117.62a6.13,6.13,0,0,1-4.89-3S140.11,120.48,145.13,117.62Z" style="fill: rgb(30, 42, 76); transform-origin: 142.685px 116.513px 0px;" id="el4wn0yans97r" class="animable"></path><path d="M158.85,222.78s-6.16,56.14-9.93,77.17c-4.12,23-20,99.76-20,99.76H115.42S125,324.84,127,302c2.15-24.75,6.54-79.26,6.54-79.26Z" style="fill: rgb(152, 24, 198); transform-origin: 137.135px 311.225px 0px;" id="elfigzgff8m0i" class="animable"></path><g id="el0zp92k4fy1cr"><path d="M158.85,222.78s-6.16,56.14-9.93,77.17c-4.12,23-20,99.76-20,99.76H115.42S125,324.84,127,302c2.15-24.75,6.54-79.26,6.54-79.26Z" style="fill: rgb(250, 250, 250); opacity: 0.6; transform-origin: 137.135px 311.225px 0px;" class="animable"></path></g><path d="M130.83,394.75c.06,0-1.19,5.17-1.19,5.17H114.51l.1-4.61Z" style="fill: rgb(152, 24, 198); transform-origin: 122.671px 397.335px 0px;" id="elzj3ijcn4lhc" class="animable"></path><g id="elid06k0iz2xd"><path d="M130.83,394.75c.06,0-1.19,5.17-1.19,5.17H114.51l.1-4.61Z" style="fill: rgb(250, 250, 250); opacity: 0.1; transform-origin: 122.671px 397.335px 0px;" class="animable"></path></g><path d="M154.36,242.78c-9.57,1.89-7.16,37.84-5.29,56.33,2.28-13.07,5.38-38.22,7.47-56.07A3.34,3.34,0,0,0,154.36,242.78Z" style="fill: rgb(152, 24, 198); transform-origin: 151.947px 270.906px 0px;" id="elapdf77hs7qh" class="animable"></path><g id="elgn01u6vuq0v"><path d="M154.36,242.78c-9.57,1.89-7.16,37.84-5.29,56.33,2.28-13.07,5.38-38.22,7.47-56.07A3.34,3.34,0,0,0,154.36,242.78Z" style="fill: rgb(250, 250, 250); opacity: 0.4; transform-origin: 151.947px 270.906px 0px;" class="animable"></path></g><path d="M172.79,222.78s3.14,54.92,3.2,77.33c.07,23.3-5.12,99.6-5.12,99.6H158.42s-3.35-74.94-4.79-97.82c-1.56-24.95-6.67-79.11-6.67-79.11Z" style="fill: rgb(152, 24, 198); transform-origin: 161.475px 311.245px 0px;" id="elpuf0ytraanm" class="animable"></path><g id="elxt60fzsitkj"><path d="M172.79,222.78s3.14,54.92,3.2,77.33c.07,23.3-5.12,99.6-5.12,99.6H158.42s-3.35-74.94-4.79-97.82c-1.56-24.95-6.67-79.11-6.67-79.11Z" style="fill: rgb(250, 250, 250); opacity: 0.6; transform-origin: 161.475px 311.245px 0px;" class="animable"></path></g><path d="M175.8,215.72l-3.49.28a1.92,1.92,0,0,0-1.68,2.46l1.44,4.85a2.56,2.56,0,0,0,4,1.28,13.09,13.09,0,0,0,3.73-6.21Z" style="fill: rgb(228, 137, 123); transform-origin: 175.175px 220.418px 0px;" id="elyqcbt01k1vi" class="animable"></path><path d="M167.92,390.77h0a.14.14,0,0,1-.12-.14c1.38-21.11,4.58-72.2,4.52-90.52,0-18.75-2.28-60.69-3-73.1a.12.12,0,0,1,.12-.13.13.13,0,0,1,.13.12c.68,12.41,2.91,54.35,3,73.11.06,18.33-3.14,69.42-4.52,90.54A.12.12,0,0,1,167.92,390.77Z" style="fill: rgb(152, 24, 198); transform-origin: 170.185px 308.825px 0px;" id="elea2jefm4tq" class="animable"></path><g id="el9u5al4pwv2p"><path d="M167.92,390.77h0a.14.14,0,0,1-.12-.14c1.38-21.11,4.58-72.2,4.52-90.52,0-18.75-2.28-60.69-3-73.1a.12.12,0,0,1,.12-.13.13.13,0,0,1,.13.12c.68,12.41,2.91,54.35,3,73.11.06,18.33-3.14,69.42-4.52,90.54A.12.12,0,0,1,167.92,390.77Z" style="fill: rgb(250, 250, 250); opacity: 0.3; transform-origin: 170.185px 308.825px 0px;" class="animable"></path></g><path d="M173.07,394.75c.06,0-.5,5.17-.5,5.17H157.43l-.59-4.61Z" style="fill: rgb(152, 24, 198); transform-origin: 164.957px 397.335px 0px;" id="el3di0oehazo4" class="animable"></path><g id="el5y81xr5zw6"><path d="M173.07,394.75c.06,0-.5,5.17-.5,5.17H157.43l-.59-4.61Z" style="fill: rgb(250, 250, 250); opacity: 0.1; transform-origin: 164.957px 397.335px 0px;" class="animable"></path></g></g><defs>     <filter id="active" height="200%">         <feMorphology in="SourceAlpha" result="DILATED" operator="dilate" radius="2"></feMorphology>                <feFlood flood-color="#32DFEC" flood-opacity="1" result="PINK"></feFlood>        <feComposite in="PINK" in2="DILATED" operator="in" result="OUTLINE"></feComposite>        <feMerge>            <feMergeNode in="OUTLINE"></feMergeNode>            <feMergeNode in="SourceGraphic"></feMergeNode>        </feMerge>    </filter>    <filter id="hover" height="200%">        <feMorphology in="SourceAlpha" result="DILATED" operator="dilate" radius="2"></feMorphology>                <feFlood flood-color="#ff0000" flood-opacity="0.5" result="PINK"></feFlood>        <feComposite in="PINK" in2="DILATED" operator="in" result="OUTLINE"></feComposite>        <feMerge>            <feMergeNode in="OUTLINE"></feMergeNode>            <feMergeNode in="SourceGraphic"></feMergeNode>        </feMerge>            <feColorMatrix type="matrix" values="0   0   0   0   0                0   1   0   0   0                0   0   0   0   0                0   0   0   1   0 "></feColorMatrix>    </filter></defs></svg>