<svg class="animated" id="freepik_stories-outer-space" xmlns="http://www.w3.org/2000/svg" viewBox="0 0 750 500" version="1.1" xmlns:xlink="http://www.w3.org/1999/xlink" xmlns:svgjs="http://svgjs.com/svgjs"><style>svg#freepik_stories-outer-space:not(.animated) .animable {opacity: 0;}svg#freepik_stories-outer-space.animated #freepik--Character--inject-24 {animation: 1.5s Infinite  linear floating;animation-delay: 1s;}svg#freepik_stories-outer-space.animated #freepik--Planets--inject-24 {animation: 1.5s Infinite  linear floating;animation-delay: 0s;}            @keyframes floating {                0% {                    opacity: 1;                    transform: translateY(0px);                }                50% {                    transform: translateY(-10px);                }                100% {                    opacity: 1;                    transform: translateY(0px);                }            }        </style><g id="freepik--background-complete--inject-24" style="transform-origin: 378.844px 252.709px 0px;" class="animable"><path d="M421.32,96.12a60.61,60.61,0,0,0-53.94,2.3c-17.26,9.71-29,27.57-46.75,36.35-20.14,10-43.92,6.5-66.39,6.9s-48.38,7.74-56.65,28.63c-7,17.65,1.54,38.33-4.43,56.35-5,14.93-18.67,24.84-29.26,36.48-17.56,19.32-27.36,46.31-23.19,72.08s23.46,49.27,48.79,55.61c27.53,6.88,57.88-5.94,84.43,4.07,17.87,6.75,30.54,22.62,46.69,32.81,27.18,17.14,64.69,16.08,90.86-2.57,13.38-9.53,23.72-23,37.64-31.72,36-22.62,86.19-8.44,122.77-30.16C601,346,613.9,306,600.45,274.94c-9.86-22.72-31.18-39.16-40-62.29-7.45-19.42-5.18-41-7.48-61.69s-11.89-43.4-31.74-49.59c-13.1-4.08-27.11.15-40.71,1.93-21.33,2.79-39.71,2-59.16-7.18" style="fill: rgb(224, 224, 224); transform-origin: 372.768px 265.374px 0px;" id="elbob26bfybrf" class="animable"></path><path d="M108.48,39.81c-16.87,5.53-34.86,19-38.74,36.36s.76,36.05,11,50.54c7.84,11.07,20.42,20.32,33.89,18.78,10-1.16,18.48-8,28.17-10.83,8.93-2.62,18.59-1.76,27.52-4.37,18.71-5.46,30.43-26.56,27.87-45.89s-17.43-35.73-35.49-43.06-38.72-6.43-57.32-.62" style="fill: rgb(224, 224, 224); transform-origin: 133.459px 90.8801px 0px;" id="elwmii4fon2ub" class="animable"></path><path d="M622.33,383.13c-13.93-2.76-29.07,3.13-37.92,14.24s-11.28,26.83-6.75,40.29,15.7,24.37,29.06,29.16c9.77,3.5,21.23,3.69,30-1.82,7.56-4.73,12.26-13,14.82-21.59,3.93-13.09,3.34-27.84-3.26-39.81s-17.13-21.43-30.8-21.15" style="fill: rgb(235, 235, 235); transform-origin: 614.711px 425.88px 0px;" id="elkrh33ys98v" class="animable"></path><path d="M663.93,277.61l.48.87a5.73,5.73,0,0,0,2.33,2.3l.87.48-.87.47a5.7,5.7,0,0,0-2.33,2.31l-.48.86-.48-.86a5.82,5.82,0,0,0-2.33-2.31l-.87-.47.87-.48a5.86,5.86,0,0,0,2.33-2.3Z" style="fill: rgb(235, 235, 235); transform-origin: 663.93px 281.255px 0px;" id="el616yev9leof" class="animable"></path><path d="M108.69,320.06l.47.86a5.82,5.82,0,0,0,2.33,2.31l.88.47-.88.48a5.86,5.86,0,0,0-2.33,2.3l-.47.87-.48-.87a5.86,5.86,0,0,0-2.33-2.3l-.88-.48.88-.47a5.82,5.82,0,0,0,2.33-2.31Z" style="fill: rgb(235, 235, 235); transform-origin: 108.685px 323.705px 0px;" id="el43cd0x57rmc" class="animable"></path><path d="M683,375.46l.81,1.5a10,10,0,0,0,4,4l1.5.82-1.5.81a10,10,0,0,0-4,4l-.81,1.5-.82-1.5a10,10,0,0,0-4-4l-1.5-.81,1.5-.82a10,10,0,0,0,4-4Z" style="fill: rgb(235, 235, 235); transform-origin: 682.995px 381.775px 0px;" id="elhjgelzhb9kc" class="animable"></path><path d="M88.05,416.14l.82,1.5a10,10,0,0,0,4,4l1.5.82-1.5.82a10,10,0,0,0-4,4l-.82,1.49-.81-1.49a10,10,0,0,0-4-4l-1.5-.82,1.5-.82a10,10,0,0,0,4-4Z" style="fill: rgb(235, 235, 235); transform-origin: 88.055px 422.455px 0px;" id="el4j601pdt7c3" class="animable"></path><path d="M316.89,74.72l.82,1.5a10,10,0,0,0,4,4l1.5.82-1.5.82a10,10,0,0,0-4,4l-.82,1.49-.82-1.49a10,10,0,0,0-4-4L310.6,81l1.49-.82a10,10,0,0,0,4-4Z" style="fill: rgb(235, 235, 235); transform-origin: 316.905px 81.035px 0px;" id="elo15h05brze" class="animable"></path><path d="M531.07,208.8l.81,1.5a10,10,0,0,0,4,4l1.5.82-1.5.81a10,10,0,0,0-4,4l-.81,1.5-.82-1.5a10,10,0,0,0-4-4l-1.5-.81,1.5-.82a10,10,0,0,0,4-4Z" style="fill: rgb(250, 250, 250); transform-origin: 531.065px 215.115px 0px;" id="elqpdnnyyyol" class="animable"></path></g><g id="freepik--Character--inject-24" style="transform-origin: 384.751px 261.861px 0px;" class="animable"><path d="M232.25,290.45c-.93,3.74,47.06,43.41,160.78,35.25,97.72-7,145.58-51.75,145.58-51.75Z" style="fill: rgb(182, 0, 188); transform-origin: 385.423px 300.377px 0px;" id="el54wgdfjo2sg" class="animable"></path><g id="elezse4uqafps"><path d="M232.25,290.45c-.93,3.74,47.06,43.41,160.78,35.25,97.72-7,145.58-51.75,145.58-51.75Z" style="opacity: 0.2; transform-origin: 385.423px 300.377px 0px;" class="animable"></path></g><g id="els1kra74n37"><ellipse cx="384.57" cy="281.02" rx="153.85" ry="20.48" style="fill: rgb(182, 0, 188); transform-origin: 384.57px 281.02px 0px; transform: rotate(-2.73deg);" class="animable"></ellipse></g><path d="M314.2,275.78s-4.48-69.51,64.44-78.32,75.06,64.22,75.06,64.22S409.09,295.68,314.2,275.78Z" style="fill: rgb(245, 245, 245); transform-origin: 383.92px 239.375px 0px;" id="elxu6ndeyust" class="animable"></path><path d="M349.75,214c.23.33-2.16,2.18-5.65,5.5-.86.83-1.81,1.74-2.77,2.78s-2,2.15-3,3.34a74,74,0,0,0-11,17.32c-.63,1.46-1.26,2.83-1.73,4.15s-1,2.56-1.34,3.7c-1.52,4.56-2.17,7.51-2.57,7.45s-.3-3.11.8-8c.28-1.21.61-2.53,1.07-3.91s1-2.85,1.57-4.39a59.8,59.8,0,0,1,11.39-18c1.14-1.18,2.2-2.32,3.3-3.29a39.86,39.86,0,0,1,3.08-2.63C346.8,215,349.59,213.71,349.75,214Z" style="fill: rgb(255, 255, 255); transform-origin: 335.62px 236.101px 0px;" id="elvr9f5o5ypli" class="animable"></path><path d="M526.65,272.59a2.81,2.81,0,0,1-.42.52,12.18,12.18,0,0,1-1.43,1.28,25.29,25.29,0,0,1-6.24,3.25A161.14,161.14,0,0,1,473.48,288c-3,.23-5.36.34-7,.38l-1.91,0a4.92,4.92,0,0,1-.67,0,2.75,2.75,0,0,1,.67-.08l1.9-.13c1.66-.11,4.05-.27,7-.55a175.93,175.93,0,0,0,45-10.36,27.07,27.07,0,0,0,6.26-3.07A24.19,24.19,0,0,0,526.65,272.59Z" style="fill: rgb(255, 255, 255); transform-origin: 495.275px 280.491px 0px;" id="ellgb5b0c8zui" class="animable"></path><path d="M366.37,327a4.7,4.7,0,0,1-.94-.58,21.87,21.87,0,0,1-2.37-1.87,28.72,28.72,0,0,1-3.12-3.23,32.52,32.52,0,0,1-3.13-4.52,33.65,33.65,0,0,1-2.29-5,30.5,30.5,0,0,1-1.18-4.33,23.51,23.51,0,0,1-.4-3,5,5,0,0,1,0-1.11c.1,0,.21,1.56.77,4a34.27,34.27,0,0,0,1.27,4.24,38.64,38.64,0,0,0,2.29,4.91,37.07,37.07,0,0,0,3.05,4.47,33.34,33.34,0,0,0,3,3.26C365.14,326,366.43,326.91,366.37,327Z" style="fill: rgb(38, 50, 56); transform-origin: 359.641px 315.18px 0px;" id="elx784d3tmxwd" class="animable"></path><path d="M361.65,311.12c0,.07-.25.19-.33.56a.64.64,0,0,0,.09.57.6.6,0,0,0,1-.28.67.67,0,0,0-.21-.54c-.27-.28-.56-.23-.58-.31s.32-.29.81,0a1,1,0,0,1,.46.85,1,1,0,0,1-.77.93,1,1,0,0,1-1.18-1.37C361.23,311,361.67,311.05,361.65,311.12Z" style="fill: rgb(38, 50, 56); transform-origin: 361.872px 311.954px 0px;" id="el93cspcrl2vs" class="animable"></path><path d="M366.13,319.13c0,.07-.24.18-.33.56a.68.68,0,0,0,.09.57.54.54,0,0,0,.6.16.54.54,0,0,0,.43-.45.67.67,0,0,0-.21-.53c-.27-.28-.56-.24-.58-.31s.32-.29.81,0a1,1,0,0,1,.46.85,1,1,0,1,1-1.95-.44C365.71,319,366.15,319.06,366.13,319.13Z" style="fill: rgb(38, 50, 56); transform-origin: 366.409px 319.887px 0px;" id="elzmjd2noq7w" class="animable"></path><path d="M231.25,287.67a4.46,4.46,0,0,1,.81-.27l2.36-.67c2-.57,5-1.34,8.73-2.23,7.39-1.78,17.7-3.9,29.2-5.55s22-2.46,29.6-2.82c3.8-.18,6.88-.27,9-.28l2.45,0a4.78,4.78,0,0,1,.86,0,5.67,5.67,0,0,1-.85.08l-2.45.11c-2.12.08-5.2.22-9,.45-7.59.45-18.06,1.34-29.55,3s-21.78,3.7-29.19,5.39c-3.71.84-6.7,1.55-8.76,2.07l-2.38.58A5.31,5.31,0,0,1,231.25,287.67Z" style="fill: rgb(38, 50, 56); transform-origin: 272.755px 281.75px 0px;" id="elqjweyvfi54a" class="animable"></path><path d="M454.77,295.5a8.57,8.57,0,0,1-1.28-.78l-3.41-2.26c-2.88-1.91-6.89-4.49-11.41-7.2s-8.69-5-11.73-6.66l-3.6-1.94a9.3,9.3,0,0,1-1.3-.76,8.91,8.91,0,0,1,1.39.58c.88.4,2.14,1,3.68,1.79,3.09,1.56,7.3,3.83,11.83,6.54s8.52,5.36,11.35,7.34c1.41,1,2.55,1.82,3.32,2.4A8.56,8.56,0,0,1,454.77,295.5Z" style="fill: rgb(38, 50, 56); transform-origin: 438.405px 285.7px 0px;" id="eli3guub9ka6" class="animable"></path><path d="M426.75,282.38c.06.06-.24.31-.22.83a1.06,1.06,0,0,0,.32.74.94.94,0,0,0,1.45-.64,1,1,0,0,0-.33-.74c-.37-.36-.75-.31-.76-.39s.41-.29,1,.1a1.36,1.36,0,0,1,.58,1,1.31,1.31,0,0,1-.82,1.21,1.29,1.29,0,0,1-1.43-.21,1.32,1.32,0,0,1-.37-1.11C426.26,282.49,426.74,282.32,426.75,282.38Z" style="fill: rgb(38, 50, 56); transform-origin: 427.474px 283.335px 0px;" id="el99zvsyt8aab" class="animable"></path><path d="M297.35,278.51c0,.06-.24.31-.22.82a1,1,0,0,0,.32.74.93.93,0,0,0,1.45-.64,1,1,0,0,0-.33-.73c-.37-.37-.75-.31-.76-.39s.41-.29,1,.1a1.34,1.34,0,0,1,.58,1,1.29,1.29,0,0,1-.82,1.2,1.3,1.3,0,0,1-1.44-.21,1.34,1.34,0,0,1-.36-1.11C296.86,278.62,297.34,278.44,297.35,278.51Z" style="fill: rgb(38, 50, 56); transform-origin: 298.074px 279.46px 0px;" id="eldjvkh53ieco" class="animable"></path><path d="M273.48,281.52c0,.06-.24.3-.23.82a1.05,1.05,0,0,0,.33.74.86.86,0,0,0,.9.09.85.85,0,0,0,.54-.73,1,1,0,0,0-.32-.74c-.37-.36-.75-.31-.76-.39s.41-.28,1,.11a1.31,1.31,0,0,1,.57,1,1.26,1.26,0,0,1-.81,1.2,1.3,1.3,0,0,1-1.44-.21,1.34,1.34,0,0,1-.36-1.11C273,281.63,273.47,281.45,273.48,281.52Z" style="fill: rgb(38, 50, 56); transform-origin: 274.199px 282.468px 0px;" id="el53cxewhygi8" class="animable"></path><path d="M246.26,285.72c.05.06-.25.31-.23.83a1,1,0,0,0,.33.74.84.84,0,0,0,.9.08.83.83,0,0,0,.54-.72,1.06,1.06,0,0,0-.32-.74c-.37-.36-.76-.31-.76-.39s.41-.29,1,.11a1.32,1.32,0,0,1,.57,1,1.29,1.29,0,0,1-.81,1.2,1.3,1.3,0,0,1-1.44-.21,1.39,1.39,0,0,1-.37-1.11C245.77,285.83,246.25,285.66,246.26,285.72Z" style="fill: rgb(38, 50, 56); transform-origin: 246.976px 286.676px 0px;" id="elawvyuo8pmqh" class="animable"></path><path d="M437.65,289.74c.06.06-.24.31-.22.82a1,1,0,0,0,.32.74.84.84,0,0,0,.9.09.86.86,0,0,0,.55-.73,1,1,0,0,0-.33-.73c-.37-.37-.75-.31-.76-.39s.41-.29,1,.1a1.34,1.34,0,0,1,.58,1,1.32,1.32,0,1,1-2.62-.12C437.16,289.85,437.64,289.67,437.65,289.74Z" style="fill: rgb(38, 50, 56); transform-origin: 438.373px 290.731px 0px;" id="el2moynxmqj6" class="animable"></path><path d="M389.32,205.29a21,21,0,0,0-27.33,16l-.09.55a18,18,0,0,0,0,6.09,29.74,29.74,0,0,0,4,10.58c5.73,9.29,8.8,9.59,9.36,14.89s1.36,6.43-1.35,8.69c0,0-3.72.23-5.75,1.47s-3.73,2.14-3.95,8.35-.49,10-.49,10a167.31,167.31,0,0,0,32.44-1.25L394.8,265a4.25,4.25,0,0,0-3.16-2.93c-2.48-.45-6.31-.34-6.54-1.69s.34-1.81.34-1.81,4.51,1.81,7.44.45,6.21-3.15,6.77-5.41,2.33-9.93,2-10.27,4.41-4.17,4.61-13-5.66-20.54-13.45-23.81Q391,205.85,389.32,205.29Z" style="fill: rgb(69, 90, 100); transform-origin: 383.953px 243.196px 0px;" id="elji64vb0vqil" class="animable"></path><path d="M374.91,225.24s16.76-5.09,14.26,14.29C389.17,239.53,371.25,241.78,374.91,225.24Z" style="fill: rgb(38, 50, 56); transform-origin: 381.921px 232.135px 0px;" id="el7a94to4mk2b" class="animable"></path><path d="M396.39,239.11s-7.06-16.84,5.32-15.16C401.71,224,408.43,236.14,396.39,239.11Z" style="fill: rgb(38, 50, 56); transform-origin: 398.983px 231.471px 0px;" id="el3jiub8et8zd" class="animable"></path><path d="M419.05,260.24s-3,1-3.74,1.82-1.86,3.8-3.09,4.16a6.29,6.29,0,0,1-3.11-.29s-.65-3.62-2-5.23-1.69-1.23-1.69-1.23-3.39-.08-3.21-2c0,0,1.41-1.65,3.8.65a2,2,0,0,0,2.61.16c1.34-1.09,1.54-3.77,1.4-5.56,0,0-1.35-3.13.76-3.76,0,0,1.77.13.8,3.79,0,0-1.55,3.89.59,5.43,0,0,1.74.76,3.7-2.62l.65-1.24s.11-2.68,2.44-2.75a.57.57,0,0,1,.58.46,2.62,2.62,0,0,1-1.81,3s-2.67,2-2.32,4.31c0,0,.81.87,2.82-.05L419,259s2.53-2.16,2.9-1.17C422.28,259.05,420.84,260.33,419.05,260.24Z" style="fill: rgb(69, 90, 100); transform-origin: 412.082px 257.629px 0px;" id="eljpahlj70zxb" class="animable"></path><polygon points="409.1 265.41 405.83 279.33 408.66 278.88 411.58 278.3 413.27 265.37 409.1 265.41" style="fill: rgb(69, 90, 100); transform-origin: 409.55px 272.35px 0px;" id="elzb0qikfhc2b" class="animable"></polygon><g id="elgz0lcuft20i"><g style="opacity: 0.2; transform-origin: 372.847px 212.965px 0px;" class="animable"><path d="M372.84,210.34a2.69,2.69,0,0,0-2.63,2.11,2.81,2.81,0,0,0,1.72,3,2.78,2.78,0,0,0,3.26-1.18,2.73,2.73,0,0,0-.67-3.39,2.68,2.68,0,0,0-2.22-.48" style="fill: rgb(255, 255, 255); transform-origin: 372.847px 212.965px 0px;" id="elelo1j6x83a" class="animable"></path></g></g><path d="M377.54,229.13a1.12,1.12,0,0,0-1.17.77,1.12,1.12,0,0,0,2,.95,1.13,1.13,0,0,0-.15-1.43,1.1,1.1,0,0,0-.9-.28" style="fill: rgb(69, 90, 100); transform-origin: 377.44px 230.233px 0px;" id="elx7zwt3qqlri" class="animable"></path><path d="M378,233.25a.56.56,0,0,0-.59.39.58.58,0,0,0,.31.66.56.56,0,0,0,.7-.18.55.55,0,0,0-.53-.87" style="fill: rgb(69, 90, 100); transform-origin: 377.961px 233.799px 0px;" id="el9zim4i9xwdt" class="animable"></path><g id="elgapz6m1qocd"><g style="opacity: 0.2; transform-origin: 369.21px 217.587px 0px;" class="animable"><path d="M368.84,216.56a1.06,1.06,0,1,0,.74,0" style="fill: rgb(255, 255, 255); transform-origin: 369.21px 217.587px 0px;" id="elapy3wr1e7w" class="animable"></path></g></g><path d="M384.16,241.37a2,2,0,0,1-.79,0,9.51,9.51,0,0,1-2.14-.32,11.62,11.62,0,0,1-8.73-10.31,10.46,10.46,0,0,1,0-2.17,2,2,0,0,1,.18-.77c.1,0-.09,1.12.15,2.89a12,12,0,0,0,8.46,10C383,241.27,384.17,241.28,384.16,241.37Z" style="fill: rgb(38, 50, 56); transform-origin: 378.302px 234.605px 0px;" id="eli4q4ho7pxfc" class="animable"></path><path d="M389.2,228.92a16.92,16.92,0,0,0-4.51-4.08,17.22,17.22,0,0,0-5.81-1.78,4.35,4.35,0,0,1,1.84-.06,11.26,11.26,0,0,1,7.59,4.31A4.14,4.14,0,0,1,389.2,228.92Z" style="fill: rgb(38, 50, 56); transform-origin: 384.04px 225.925px 0px;" id="elen48e65ire7" class="animable"></path><path d="M394.32,231a4.41,4.41,0,0,1-.28-1.53,9.42,9.42,0,0,1,.33-3.76,4.91,4.91,0,0,1,2.44-2.89,2,2,0,0,1,1.55-.25,13,13,0,0,0-1.38.57,5.14,5.14,0,0,0-2.12,2.74,11.46,11.46,0,0,0-.45,3.58A4.71,4.71,0,0,1,394.32,231Z" style="fill: rgb(38, 50, 56); transform-origin: 396.169px 226.756px 0px;" id="elvasdm8jri3" class="animable"></path><path d="M402.33,237.27a4,4,0,0,1-2.29,2.34,4,4,0,0,1-3.25.38,15,15,0,0,0,3-.84A14.85,14.85,0,0,0,402.33,237.27Z" style="fill: rgb(38, 50, 56); transform-origin: 399.56px 238.722px 0px;" id="elx37a6hnkidm" class="animable"></path><path d="M392.65,247c0,.06-.2.27-.68.39a2.47,2.47,0,0,1-3-1.85c-.1-.49,0-.78.06-.78s.12.28.29.66a2.75,2.75,0,0,0,1,1.22,2.82,2.82,0,0,0,1.54.39C392.35,247,392.62,246.92,392.65,247Z" style="fill: rgb(38, 50, 56); transform-origin: 390.789px 246.111px 0px;" id="eldnxyxxwtwri" class="animable"></path><path d="M389.73,259.21a4.18,4.18,0,0,1-1.8.06,10.61,10.61,0,0,1-7.33-4.36,3.89,3.89,0,0,1-.8-1.61,13.88,13.88,0,0,1,1.1,1.39A12.18,12.18,0,0,0,388,258.9,13,13,0,0,1,389.73,259.21Z" style="fill: rgb(38, 50, 56); transform-origin: 384.765px 256.32px 0px;" id="el4vdhpkbun7o" class="animable"></path><path d="M370.61,282.06a44.34,44.34,0,0,1,0-9.59,44.35,44.35,0,0,1,0,9.59Z" style="fill: rgb(38, 50, 56); transform-origin: 370.61px 277.265px 0px;" id="elgtm66h0np37" class="animable"></path><path d="M380.9,278.35a9.52,9.52,0,0,1-4.45.57,4.85,4.85,0,0,1-3.1-.93c-.66-.61-.65-1.23-.59-1.22s.21.49.82.93a5.25,5.25,0,0,0,2.89.7C378.9,278.53,380.87,278.2,380.9,278.35Z" style="fill: rgb(38, 50, 56); transform-origin: 376.817px 277.874px 0px;" id="eliyulh7690ft" class="animable"></path><path d="M390.69,281.26a16.61,16.61,0,0,1-.61-4,16.1,16.1,0,0,1-.1-4.06,31,31,0,0,1,.71,8.07Z" style="fill: rgb(38, 50, 56); transform-origin: 390.308px 277.235px 0px;" id="el94oczffp3pb" class="animable"></path><path d="M390.2,274.8a3.92,3.92,0,0,1-4.47,2.63,16.39,16.39,0,0,0,2.47-.92C389.45,275.79,390.06,274.72,390.2,274.8Z" style="fill: rgb(38, 50, 56); transform-origin: 387.965px 276.149px 0px;" id="eljjvkofd856i" class="animable"></path><path d="M400.08,204.24a16,16,0,0,0-3.16,1.88,15.65,15.65,0,0,0-2.25,2.91c-.06,0,0-.46.28-1.1a6.61,6.61,0,0,1,4-3.55C399.63,204.18,400.07,204.18,400.08,204.24Z" style="fill: rgb(69, 90, 100); transform-origin: 397.364px 206.618px 0px;" id="eljeggjf0h7i" class="animable"></path><path d="M401.3,203.17a1.37,1.37,0,0,0-1.79.53,1.21,1.21,0,0,0,1.47,1.71,1.35,1.35,0,0,0,.62-2.06.78.78,0,0,0-.73-.33" style="fill: rgb(69, 90, 100); transform-origin: 400.613px 204.247px 0px;" id="el1hmnyktffvj" class="animable"></path><path d="M395.49,202.42a15.36,15.36,0,0,0-3.16,1.87,15.65,15.65,0,0,0-2.25,2.91c-.06,0,0-.45.27-1.1a6.66,6.66,0,0,1,1.64-2.2,6.58,6.58,0,0,1,2.38-1.35C395,202.35,395.48,202.36,395.49,202.42Z" style="fill: rgb(69, 90, 100); transform-origin: 392.774px 204.791px 0px;" id="elkr7n5j6ht" class="animable"></path><path d="M396.71,201.34a1.37,1.37,0,0,0-1.79.54,1.2,1.2,0,0,0,1.47,1.7,1.34,1.34,0,0,0,.62-2.05.75.75,0,0,0-.73-.33" style="fill: rgb(69, 90, 100); transform-origin: 396.021px 202.424px 0px;" id="elp7gikoyaxz" class="animable"></path></g><g id="freepik--Stars--inject-24" style="transform-origin: 381.06px 254.12px 0px;" class="animable"><path d="M266.89,217.1l.48.87a6,6,0,0,0,2.33,2.31l.87.47-.87.48a5.86,5.86,0,0,0-2.33,2.3l-.48.87-.48-.87a5.77,5.77,0,0,0-2.32-2.3l-.88-.48.88-.47a5.86,5.86,0,0,0,2.32-2.31Z" style="fill: rgb(250, 250, 250); transform-origin: 266.89px 220.75px 0px;" id="elv0g88oczgu" class="animable"></path><path d="M342,356.57l.48.87a5.77,5.77,0,0,0,2.32,2.3l.88.48-.88.47A5.73,5.73,0,0,0,342.5,363l-.48.86-.48-.86a5.82,5.82,0,0,0-2.33-2.31l-.87-.47.87-.48a5.86,5.86,0,0,0,2.33-2.3Z" style="fill: rgb(235, 235, 235); transform-origin: 342.01px 360.215px 0px;" id="eli16kdyi11jp" class="animable"></path><path d="M192.88,443.84l.48.87a5.86,5.86,0,0,0,2.33,2.3l.88.48-.88.47a5.82,5.82,0,0,0-2.33,2.31l-.48.86-.48-.86a5.73,5.73,0,0,0-2.32-2.31l-.88-.47.88-.48a5.77,5.77,0,0,0,2.32-2.3Z" style="fill: rgb(235, 235, 235); transform-origin: 192.885px 447.485px 0px;" id="el6cl3azqe93x" class="animable"></path><path d="M514.75,57.11l.48.87a5.87,5.87,0,0,0,2.3,2.31l.87.47-.87.47a5.87,5.87,0,0,0-2.3,2.31l-.48.87-.47-.87A5.83,5.83,0,0,0,512,61.23l-.86-.47.86-.47A5.83,5.83,0,0,0,514.28,58Z" style="fill: rgb(69, 90, 100); transform-origin: 514.77px 60.76px 0px;" id="el1779elmdiv4" class="animable"></path><path d="M382.24,395.08l.48.87a5.78,5.78,0,0,0,2.3,2.3l.87.48-.87.47a5.75,5.75,0,0,0-2.3,2.31l-.48.86-.47-.86a5.71,5.71,0,0,0-2.31-2.31l-.87-.47.87-.48a5.75,5.75,0,0,0,2.31-2.3Z" style="fill: rgb(69, 90, 100); transform-origin: 382.24px 398.725px 0px;" id="elzmtucagj50p" class="animable"></path><path d="M105.45,112.39l.48.87a5.83,5.83,0,0,0,2.31,2.31l.86.47-.86.47a5.83,5.83,0,0,0-2.31,2.31l-.48.87-.47-.87a5.83,5.83,0,0,0-2.31-2.31l-.86-.47.86-.47a5.83,5.83,0,0,0,2.31-2.31Z" style="fill: rgb(69, 90, 100); transform-origin: 105.455px 116.04px 0px;" id="elqencqjfuqhl" class="animable"></path><path d="M560.29,422.23l.48.87a5.87,5.87,0,0,0,2.3,2.31l.87.47-.87.48a5.78,5.78,0,0,0-2.3,2.3l-.48.87-.47-.87a5.75,5.75,0,0,0-2.31-2.3l-.86-.48.86-.47a5.83,5.83,0,0,0,2.31-2.31Z" style="fill: rgb(69, 90, 100); transform-origin: 560.295px 425.88px 0px;" id="elpiwalygriks" class="animable"></path><path d="M510,329.91l.47.87a5.87,5.87,0,0,0,2.31,2.3l.87.48-.87.47a5.83,5.83,0,0,0-2.31,2.31l-.47.87-.48-.87a5.75,5.75,0,0,0-2.3-2.31l-.87-.47.87-.48a5.78,5.78,0,0,0,2.3-2.3Z" style="fill: rgb(69, 90, 100); transform-origin: 510px 333.56px 0px;" id="elqwoi3ovhza" class="animable"></path><path d="M189.2,274.64l.48.87a5.87,5.87,0,0,0,2.3,2.31l.87.47-.87.47a5.87,5.87,0,0,0-2.3,2.31l-.48.87-.47-.87a6,6,0,0,0-2.31-2.31l-.87-.47.87-.47a6,6,0,0,0,2.31-2.31Z" style="fill: rgb(69, 90, 100); transform-origin: 189.2px 278.29px 0px;" id="eldinuntz1qia" class="animable"></path><path d="M615.35,251.48l.24.43a2.89,2.89,0,0,0,1.15,1.15l.44.24-.44.24a2.89,2.89,0,0,0-1.15,1.15l-.24.44-.23-.44a2.85,2.85,0,0,0-1.16-1.15l-.43-.24.43-.24a2.85,2.85,0,0,0,1.16-1.15Z" style="fill: rgb(69, 90, 100); transform-origin: 615.355px 253.305px 0px;" id="eld5g5tsleyh" class="animable"></path><path d="M276.71,354.75l.22.44a2.83,2.83,0,0,0,1.11,1.19l.42.26-.44.22a2.89,2.89,0,0,0-1.19,1.11l-.26.42-.22-.44a2.85,2.85,0,0,0-1.11-1.2l-.42-.25.44-.22a2.92,2.92,0,0,0,1.2-1.11Z" style="fill: rgb(69, 90, 100); transform-origin: 276.64px 356.57px 0px;" id="el9i5ac3zzak" class="animable"></path><path d="M578.3,142.11l.24.43a2.77,2.77,0,0,0,1.15,1.15l.43.24-.43.24a2.77,2.77,0,0,0-1.15,1.15l-.24.43-.24-.43a2.77,2.77,0,0,0-1.15-1.15l-.43-.24.43-.24a2.77,2.77,0,0,0,1.15-1.15Z" style="fill: rgb(69, 90, 100); transform-origin: 578.3px 143.93px 0px;" id="elrvc13szmzpk" class="animable"></path><path d="M285,154.31l.24.44a3,3,0,0,0,1.15,1.15l.44.24-.44.23a3,3,0,0,0-1.15,1.16L285,158l-.23-.43a2.94,2.94,0,0,0-1.16-1.16l-.43-.23.43-.24a3,3,0,0,0,1.16-1.15Z" style="fill: rgb(69, 90, 100); transform-origin: 285.005px 156.155px 0px;" id="elko96fztq2zk" class="animable"></path><path d="M156.87,74.17l.23.44a3,3,0,0,0,1.16,1.15l.43.24-.43.23a2.94,2.94,0,0,0-1.16,1.16l-.23.43-.24-.43a3,3,0,0,0-1.15-1.16L155,76l.44-.24a3,3,0,0,0,1.15-1.15Z" style="fill: rgb(69, 90, 100); transform-origin: 156.845px 75.995px 0px;" id="el96z6z5uzoaj" class="animable"></path><path d="M404.64,106.1l.81,1.49a10,10,0,0,0,4,4l1.5.82-1.5.82a10,10,0,0,0-4,4l-.81,1.5-.82-1.5a10,10,0,0,0-4-4l-1.5-.82,1.5-.82a10,10,0,0,0,4-4Z" style="fill: rgb(69, 90, 100); transform-origin: 404.635px 112.415px 0px;" id="elha8r2mmjp1h" class="animable"></path><path d="M654,339.85l.82,1.5a10,10,0,0,0,4,4l1.49.82-1.49.82a10,10,0,0,0-4,4l-.82,1.49L653.2,351a10,10,0,0,0-4-4l-1.5-.82,1.5-.82a10,10,0,0,0,4-4Z" style="fill: rgb(69, 90, 100); transform-origin: 654.005px 346.165px 0px;" id="eld80l9w1gou5" class="animable"></path><path d="M147.35,396.08l.81,1.5a10,10,0,0,0,4,4l1.5.81-1.5.82a10,10,0,0,0-4,4l-.81,1.5-.82-1.5a10,10,0,0,0-4-4l-1.5-.82,1.5-.81a10,10,0,0,0,4-4Z" style="fill: rgb(69, 90, 100); transform-origin: 147.345px 402.395px 0px;" id="elhx9e082k28c" class="animable"></path></g><g id="freepik--Planets--inject-24" style="transform-origin: 372.564px 277.839px 0px;" class="animable"><path d="M644.28,92.83c-5.58-3.24-12.79-.37-17.81,3.7s-9.24,9.38-15.2,11.87c-3.8,1.59-8.14,2-11.5,4.33-5.48,3.86-6.44,11.64-5.49,18.27s3.27,13.22,2.46,19.87c-.61,4.87-2.89,9.75-1.65,14.51,1.73,6.66,9.39,9.83,13.12,15.62,2.68,4.15,3.41,9.75,7.41,12.66,4.63,3.38,11.07,1.41,16.78,1.93,7,.63,13.05,5.14,19.74,7.41a32.4,32.4,0,0,0,31.55-6.58c4.25-3.87,7.37-8.81,11.55-12.75,3.57-3.37,7.9-6,10.83-9.95s4.1-8.55,5.31-13.15c1.77-6.72,3.55-13.71,2.26-20.54-2.07-10.9-11.36-18.83-16.2-28.81-1.89-3.89-3.27-8.34-6.77-10.88-3.71-2.7-8.73-2.47-13.07-3.94-6.23-2.1-10.94-7.66-17.31-9.29a15.57,15.57,0,0,0-16,5.73" style="fill: rgb(182, 0, 188); transform-origin: 654.02px 145.641px 0px;" id="elu6isvmxhqer" class="animable"></path><g id="elbrvwybzh68"><g style="opacity: 0.2; transform-origin: 654.02px 145.641px 0px;" class="animable"><path d="M644.28,92.83c-5.58-3.24-12.79-.37-17.81,3.7s-9.24,9.38-15.2,11.87c-3.8,1.59-8.14,2-11.5,4.33-5.48,3.86-6.44,11.64-5.49,18.27s3.27,13.22,2.46,19.87c-.61,4.87-2.89,9.75-1.65,14.51,1.73,6.66,9.39,9.83,13.12,15.62,2.68,4.15,3.41,9.75,7.41,12.66,4.63,3.38,11.07,1.41,16.78,1.93,7,.63,13.05,5.14,19.74,7.41a32.4,32.4,0,0,0,31.55-6.58c4.25-3.87,7.37-8.81,11.55-12.75,3.57-3.37,7.9-6,10.83-9.95s4.1-8.55,5.31-13.15c1.77-6.72,3.55-13.71,2.26-20.54-2.07-10.9-11.36-18.83-16.2-28.81-1.89-3.89-3.27-8.34-6.77-10.88-3.71-2.7-8.73-2.47-13.07-3.94-6.23-2.1-10.94-7.66-17.31-9.29a15.57,15.57,0,0,0-16,5.73" style="fill: rgb(255, 255, 255); transform-origin: 654.02px 145.641px 0px;" id="elvy82dmo1wuf" class="animable"></path></g></g><g id="eluw2rt4xsrar"><circle cx="653.42" cy="145.32" r="47.45" style="fill: rgb(182, 0, 188); transform-origin: 653.42px 145.32px 0px; transform: rotate(-2.03deg);" class="animable"></circle></g><g id="el13qkd5zksl7"><path d="M639.43,153.17a7.74,7.74,0,1,1-1.32-10.86A7.74,7.74,0,0,1,639.43,153.17Z" style="opacity: 0.4; transform-origin: 633.334px 148.401px 0px;" class="animable"></path></g><g id="elyw47ccixzu7"><path d="M644.57,128.82a4.5,4.5,0,1,1-.77-6.32A4.5,4.5,0,0,1,644.57,128.82Z" style="opacity: 0.4; transform-origin: 641.028px 126.045px 0px;" class="animable"></path></g><g id="ellxi5btr5dje"><circle cx="266.99" cy="447.49" r="21.5" style="fill: rgb(182, 0, 188); transform-origin: 266.99px 447.49px 0px; transform: rotate(-2.47deg);" class="animable"></circle></g><g id="elco9hgzil6a9"><path d="M257.89,441.64a3.51,3.51,0,1,1,3.1-3.87A3.51,3.51,0,0,1,257.89,441.64Z" style="opacity: 0.2; transform-origin: 257.501px 438.152px 0px;" class="animable"></path></g><g id="el6cenw5tur2q"><path d="M265.07,433.6a2,2,0,1,1,1.81-2.25A2,2,0,0,1,265.07,433.6Z" style="opacity: 0.2; transform-origin: 264.897px 431.607px 0px;" class="animable"></path></g><g id="elieetbt62zbt"><path d="M271.65,435.48a.75.75,0,1,1,.83.66A.74.74,0,0,1,271.65,435.48Z" style="opacity: 0.2; transform-origin: 272.395px 435.395px 0px;" class="animable"></path></g><circle cx="99.37" cy="226.96" r="41.67" style="fill: rgb(182, 0, 188); transform-origin: 99.37px 226.96px 0px;" id="elgv7xyp108tg" class="animable"></circle><g id="eln4xors02xl"><path d="M85.18,241.56a6.8,6.8,0,1,1-6.79-6.8A6.79,6.79,0,0,1,85.18,241.56Z" style="fill: rgb(255, 255, 255); opacity: 0.2; transform-origin: 78.3799px 241.56px 0px;" class="animable"></path></g><g id="el1d3xbipqapf"><path d="M75.54,221.94a4,4,0,1,1-4-3.95A4,4,0,0,1,75.54,221.94Z" style="fill: rgb(255, 255, 255); opacity: 0.2; transform-origin: 71.5403px 221.99px 0px;" class="animable"></path></g><path d="M59,237.1c.18.72-35.67,35.12-26.43,42.44s48.12-11.47,81.26-38.23S177.19,182,168.9,173.44s-49.69,16.87-49.69,16.87l5,3.15s25-16.06,33-9.83-14.65,30.59-46.52,53.85S47.94,277.07,43.16,270.7s17.77-27.63,17.77-27.63Z" style="fill: rgb(182, 0, 188); transform-origin: 100.667px 226.406px 0px;" id="el5mow9z55jx" class="animable"></path><g id="elo95gypypgh"><path d="M59,237.1c.18.72-35.67,35.12-26.43,42.44s48.12-11.47,81.26-38.23S177.19,182,168.9,173.44s-49.69,16.87-49.69,16.87l5,3.15s25-16.06,33-9.83-14.65,30.59-46.52,53.85S47.94,277.07,43.16,270.7s17.77-27.63,17.77-27.63Z" style="opacity: 0.4; transform-origin: 100.667px 226.406px 0px;" class="animable"></path></g><g id="eliyflw69tn4"><circle cx="495.71" cy="185.29" r="14.36" style="fill: rgb(69, 90, 100); transform-origin: 495.71px 185.29px 0px; transform: rotate(-46.28deg);" class="animable"></circle></g><path d="M500.39,179.79a2.34,2.34,0,1,1,2.29,2.4A2.34,2.34,0,0,1,500.39,179.79Z" style="fill: rgb(38, 50, 56); transform-origin: 502.729px 179.851px 0px;" id="elmpc3x3pb2yk" class="animable"></path><path d="M505.07,185.26a1.37,1.37,0,1,1,1.33,1.39A1.37,1.37,0,0,1,505.07,185.26Z" style="fill: rgb(38, 50, 56); transform-origin: 506.44px 185.281px 0px;" id="ela2tiqp1y9ku" class="animable"></path><path d="M503.25,189.44a.51.51,0,0,1,0,1,.51.51,0,0,1-.49-.52A.52.52,0,0,1,503.25,189.44Z" style="fill: rgb(38, 50, 56); transform-origin: 503.21px 189.94px 0px;" id="elo7afru1va6c" class="animable"></path></g><defs>     <filter id="active" height="200%">         <feMorphology in="SourceAlpha" result="DILATED" operator="dilate" radius="2"></feMorphology>                <feFlood flood-color="#32DFEC" flood-opacity="1" result="PINK"></feFlood>        <feComposite in="PINK" in2="DILATED" operator="in" result="OUTLINE"></feComposite>        <feMerge>            <feMergeNode in="OUTLINE"></feMergeNode>            <feMergeNode in="SourceGraphic"></feMergeNode>        </feMerge>    </filter>    <filter id="hover" height="200%">        <feMorphology in="SourceAlpha" result="DILATED" operator="dilate" radius="2"></feMorphology>                <feFlood flood-color="#ff0000" flood-opacity="0.5" result="PINK"></feFlood>        <feComposite in="PINK" in2="DILATED" operator="in" result="OUTLINE"></feComposite>        <feMerge>            <feMergeNode in="OUTLINE"></feMergeNode>            <feMergeNode in="SourceGraphic"></feMergeNode>        </feMerge>            <feColorMatrix type="matrix" values="0   0   0   0   0                0   1   0   0   0                0   0   0   0   0                0   0   0   1   0 "></feColorMatrix>    </filter></defs></svg>