<svg class="animated" id="freepik_stories-taken" xmlns="http://www.w3.org/2000/svg" viewBox="0 0 500 500" version="1.1" xmlns:xlink="http://www.w3.org/1999/xlink" xmlns:svgjs="http://svgjs.com/svgjs"><style>svg#freepik_stories-taken:not(.animated) .animable {opacity: 0;}svg#freepik_stories-taken.animated #freepik--background-complete--inject-35 {animation: 1s 1 forwards cubic-bezier(.36,-0.01,.5,1.38) zoomIn;animation-delay: 0s;}svg#freepik_stories-taken.animated #freepik--Shadow--inject-35 {animation: 1s 1 forwards cubic-bezier(.36,-0.01,.5,1.38) slideUp;animation-delay: 0s;}svg#freepik_stories-taken.animated #freepik--Beam--inject-35 {animation: 1s 1 forwards cubic-bezier(.36,-0.01,.5,1.38) slideDown;animation-delay: 0s;}svg#freepik_stories-taken.animated #freepik--Character--inject-35 {animation: 1s 1 forwards cubic-bezier(.36,-0.01,.5,1.38) slideUp,1.5s Infinite  linear floating;animation-delay: 0s,1s;}svg#freepik_stories-taken.animated #freepik--Backpack--inject-35 {animation: 1s 1 forwards cubic-bezier(.36,-0.01,.5,1.38) slideUp,1.5s Infinite  linear floating;animation-delay: 0s,1s;}            @keyframes zoomIn {                0% {                    opacity: 0;                    transform: scale(0.5);                }                100% {                    opacity: 1;                    transform: scale(1);                }            }                    @keyframes slideUp {                0% {                    opacity: 0;                    transform: translateY(30px);                }                100% {                    opacity: 1;                    transform: inherit;                }            }                    @keyframes slideDown {                0% {                    opacity: 0;                    transform: translateY(-30px);                }                100% {                    opacity: 1;                    transform: translateY(0);                }            }                    @keyframes floating {                0% {                    opacity: 1;                    transform: translateY(0px);                }                50% {                    transform: translateY(-10px);                }                100% {                    opacity: 1;                    transform: translateY(0px);                }            }        </style><g id="freepik--background-complete--inject-35" style="transform-origin: 250px 226.5px 0px;" class="animable"><rect y="382.4" width="500" height="0.25" style="fill: rgb(235, 235, 235); transform-origin: 250px 382.525px 0px;" id="elregw4chgnp" class="animable"></rect><rect x="53.79" y="391.21" width="41.21" height="0.25" style="fill: rgb(235, 235, 235); transform-origin: 74.395px 391.335px 0px;" id="elp2u6q5mtor" class="animable"></rect><rect x="137.67" y="389.21" width="41.33" height="0.25" style="fill: rgb(235, 235, 235); transform-origin: 158.335px 389.335px 0px;" id="elusu3d264c5j" class="animable"></rect><rect x="222.78" y="389.21" width="10" height="0.25" style="fill: rgb(235, 235, 235); transform-origin: 227.78px 389.335px 0px;" id="elihssgmdn4zn" class="animable"></rect><rect x="86.58" y="397.75" width="46.25" height="0.25" style="fill: rgb(235, 235, 235); transform-origin: 109.705px 397.875px 0px;" id="elxu6yzlo24s" class="animable"></rect><rect x="271.2" y="391.08" width="21.6" height="0.25" style="fill: rgb(235, 235, 235); transform-origin: 282px 391.205px 0px;" id="el7cb9mxi8v4q" class="animable"></rect><rect x="301.7" y="391.08" width="27.93" height="0.25" style="fill: rgb(235, 235, 235); transform-origin: 315.665px 391.205px 0px;" id="el4s8ii06mmff" class="animable"></rect><rect x="401.89" y="395.31" width="62.44" height="0.25" style="fill: rgb(235, 235, 235); transform-origin: 433.11px 395.435px 0px;" id="el9i4a2ayjczd" class="animable"></rect><path d="M237,337.8H43.91a5.71,5.71,0,0,1-5.7-5.71V60.66A5.71,5.71,0,0,1,43.91,55H237a5.71,5.71,0,0,1,5.71,5.71V332.09A5.71,5.71,0,0,1,237,337.8ZM43.91,55.2a5.46,5.46,0,0,0-5.45,5.46V332.09a5.46,5.46,0,0,0,5.45,5.46H237a5.47,5.47,0,0,0,5.46-5.46V60.66A5.47,5.47,0,0,0,237,55.2Z" style="fill: rgb(235, 235, 235); transform-origin: 140.46px 196.4px 0px;" id="ely4z5dhcykcs" class="animable"></path><path d="M453.31,337.8H260.21a5.72,5.72,0,0,1-5.71-5.71V60.66A5.72,5.72,0,0,1,260.21,55h193.1A5.71,5.71,0,0,1,459,60.66V332.09A5.71,5.71,0,0,1,453.31,337.8ZM260.21,55.2a5.47,5.47,0,0,0-5.46,5.46V332.09a5.47,5.47,0,0,0,5.46,5.46h193.1a5.47,5.47,0,0,0,5.46-5.46V60.66a5.47,5.47,0,0,0-5.46-5.46Z" style="fill: rgb(235, 235, 235); transform-origin: 356.75px 196.4px 0px;" id="elsygy09enbbs" class="animable"></path><path d="M239.76,322.17c2.35-.94,3.92-12.63,14.06-19.82,9.76-2.16,24.65-15.61,24.93-26.17,5-26.18,22.47-20.54,36.73-26.18l18.46,40.35,39.09,92H210.69S237.7,331,239.76,322.17Z" style="fill: rgb(235, 235, 235); transform-origin: 291.86px 316.175px 0px;" id="elkoyygiqooxe" class="animable"></path><path d="M339.86,320.48c4.64-5.81-2.18-17.29-8.76-25.94a45.16,45.16,0,0,1-8-19.74c-.77-4.93-2.9-12.66-7.66-24.8,18.54,28.82,39.63,40.39,73.85,72.12,22.28,52.43,86.55,60.28,86.55,60.28H306.66s-21.3-13.56-21.78-25.4C284.38,344.86,322.71,308.52,339.86,320.48Z" style="fill: rgb(245, 245, 245); transform-origin: 380.358px 316.2px 0px;" id="elp46pcxpt2ba" class="animable"></path><path d="M256.36,347.56c-2.55-.54-6.57-7.3-18.23-11.46-10.21-1.25-27.92-9-30.42-15.14-10.49-15.14-26.79-11.87-42.23-15.14l-10,23.34L135.74,382.4H298.08S260.27,352.67,256.36,347.56Z" style="fill: rgb(245, 245, 245); transform-origin: 216.91px 344.11px 0px;" id="elxt14gelb1ge" class="animable"></path><path d="M155.9,346.59c-5.85-3.36-1.45-10,3.31-15A14.52,14.52,0,0,0,163,320.16c-.26-2.84.25-7.32,2.46-14.34-12.49,16.67-31.15,23.36-58.7,41.71C95.51,377.86,32.89,382.4,32.89,382.4H202.11s18.45-7.84,16.45-14.69C216.51,360.69,170.54,339.67,155.9,346.59Z" style="fill: rgb(235, 235, 235); transform-origin: 125.801px 344.11px 0px;" id="elooj6ojrskwi" class="animable"></path><g id="el6g53bp6lexb"><circle cx="128.67" cy="109.33" r="22.49" style="fill: rgb(240, 240, 240); transform-origin: 128.67px 109.33px 0px; transform: rotate(-13.28deg);" class="animable"></circle></g><path d="M66.85,190.07a26.63,26.63,0,0,0,12.55-.3,57.49,57.49,0,0,0,12-4.63c3.93-2,7.86-4.18,11.79-6.39L115.16,172c4.06-2.21,8.2-4.37,12.52-6.33a100.09,100.09,0,0,1,13.56-5.06,66.78,66.78,0,0,1,14.7-2.64l1.89-.13a16.82,16.82,0,0,1,2.12,0,16,16,0,0,1,4.53,1,12.89,12.89,0,0,1,4.53,2.87,8.32,8.32,0,0,1,2.55,5.32h0l.17.58a3.38,3.38,0,0,1-1.36,3.82,66.28,66.28,0,0,1-11.79,6c-4,1.63-8.08,3-12.05,4.28-7.93,2.62-15.66,5.26-22.09,9.66h0l-.56-6a24.59,24.59,0,0,0,8.18-.84c2.77-.7,5.67-1.65,8.78-2.74,6.1-2,12.16-4.18,18.31-6.36s12.38-4.34,18.66-6.62,12.67-4.55,19.19-6.62,13.17-4,20-5.48a164.75,164.75,0,0,1,20.53-3.14,158.18,158.18,0,0,1,20.64-.51c3.44.16,6.78.35,10.35.86a23.35,23.35,0,0,1,5.3,1.36,13.89,13.89,0,0,1,4.71,3,1,1,0,0,1-1.24,1.65h0c-2.72-1.49-5.83-1.62-9-1.43-1.58.1-3.18.31-4.84.54l-4.93.7q-9.84,1.48-19.41,3.74t-18.84,5.33c-6.16,2.06-12.25,4.4-18.37,6.87l-18.49,7.64c-6.25,2.53-12.58,5.14-19.18,7.2a112.57,112.57,0,0,1-20.44,4.57,54.89,54.89,0,0,1-11.09.44,22.63,22.63,0,0,1-11.55-3.82l-.71-.51a3.33,3.33,0,0,1,.15-5.49h0a63.44,63.44,0,0,1,11.74-6.18c4-1.65,8.08-3,12.06-4.33,7.94-2.63,15.71-5.21,22.21-9.52l-1.19,4.41h0a4.86,4.86,0,0,0-2,.33,8.62,8.62,0,0,1-1.77.32c-.66.06-1.42.09-2.23.1H158.1l-1.52,0a58.77,58.77,0,0,0-12.23,1.63,105.73,105.73,0,0,0-12.28,3.75c-4.08,1.55-8.18,3.25-12.3,5.06C111.5,185,103.19,188.92,94.3,192a57.94,57.94,0,0,1-14.06,3.18,34.32,34.32,0,0,1-7.37-.21,24.49,24.49,0,0,1-7-2.11,1.51,1.51,0,0,1,1-2.83Z" style="fill: rgb(245, 245, 245); transform-origin: 171.98px 174.282px 0px;" id="elxmxad8lwptp" class="animable"></path><path d="M353.61,205.05a11,11,0,0,0,5.23,0,23.51,23.51,0,0,0,5.07-1.77c3.34-1.56,6.63-3.41,10-5.16a54.08,54.08,0,0,1,11-4.4,28.54,28.54,0,0,1,6.16-.92,7.54,7.54,0,0,1,3.54.47,5.4,5.4,0,0,1,1.86,1.25,3.55,3.55,0,0,1,1,2.25h0a1.16,1.16,0,0,1-.21,1.61l-.1.06-.24.15a41,41,0,0,1-10.06,4,36.35,36.35,0,0,0-9.32,3.74h0l-.16-2.51c2.27.27,4.48-.48,7.11-1.27s5.13-1.59,7.71-2.42c5.18-1.62,10.47-3.43,15.94-5a74.46,74.46,0,0,1,17-3.07,64.93,64.93,0,0,1,8.6.05,40.68,40.68,0,0,1,4.3.48,7.48,7.48,0,0,1,4.12,1.93.44.44,0,0,1-.53.68h0c-2.26-1.26-5.06-.53-7.81-.32s-5.46.75-8.13,1.31a101.07,101.07,0,0,0-15.66,4.61c-5.17,1.88-10.35,4.1-15.89,5.71a47.89,47.89,0,0,1-8.57,1.64,23,23,0,0,1-4.63,0,9.6,9.6,0,0,1-4.77-1.74l-.62-.48a1.15,1.15,0,0,1-.22-1.6,1.22,1.22,0,0,1,.69-.43h0a38.94,38.94,0,0,1,10.05-4.07,38.85,38.85,0,0,0,9.37-3.68l-.55,1.82h0a2,2,0,0,0-.83.12,3.85,3.85,0,0,1-.74.11c-.58,0-1.2,0-2.11,0a23.44,23.44,0,0,0-5.11.51,47.9,47.9,0,0,0-5.17,1.41c-1.73.58-3.45,1.26-5.19,2-3.49,1.38-7,2.93-10.74,4.11a24.18,24.18,0,0,1-5.9,1.14,11.85,11.85,0,0,1-6-1.15.63.63,0,0,1,.46-1.16Z" style="fill: rgb(245, 245, 245); transform-origin: 397.523px 200.104px 0px;" id="elrsljjjprd0l" class="animable"></path><path d="M420.07,95.52a105.59,105.59,0,0,1-23.37,9.71c-4.1,1.12-8.24,2-12.37,2.8s-8.27,1.71-12.43,2.38c-8.34,1.39-16.47,2.46-24.58,4-4.09.72-8.16,1.44-12.19,2.06-2,.31-4,.62-5.95,1-1,.18-1.91.35-2.77.56-.42.1-.83.22-1.15.32s-.47.23-.46-.1h0l-1.29-2.45a17.26,17.26,0,0,0,4.72.23c1.72-.09,3.47-.27,5.22-.48,3.51-.42,7-1,10.59-1.51s7.1-1.09,10.71-1.51c1.81-.21,3.63-.39,5.5-.47a19,19,0,0,1,6,.46h0a1.81,1.81,0,0,1,1.27,2.2,2.5,2.5,0,0,1-.15.38l-.31.58a13.64,13.64,0,0,1-3.62,4.19,20.37,20.37,0,0,1-4.77,2.67A42.81,42.81,0,0,1,349,125.1a67.53,67.53,0,0,1-9.75.58c-3.16,0-6.22,0-9.21,0s-5.95.24-8.93.55-6,.81-9,1.3a166.46,166.46,0,0,0-18.05,4.08h0a.6.6,0,0,1-.73-.4.58.58,0,0,1,.23-.64,57.85,57.85,0,0,1,8.3-4.76,94.43,94.43,0,0,1,8.84-3.65c3-1.11,6.08-2,9.22-2.79a73.15,73.15,0,0,1,9.63-1.66c3.22-.36,6.4-.5,9.47-.69s6-.43,8.9-.72,5.79-.69,8.67-1.08a22.26,22.26,0,0,0,7.68-2.23l.81,3.15h0a16.33,16.33,0,0,0-4.68-.28c-1.71.07-3.46.24-5.21.45-3.51.4-7,1-10.58,1.49s-7.1,1.09-10.71,1.53c-1.81.21-3.63.4-5.49.5a20.2,20.2,0,0,1-6-.38,1.85,1.85,0,0,1-1.35-2.23l0,0,0-.17h0a4,4,0,0,1,.77-1.5,6.52,6.52,0,0,1,.84-.88,12.73,12.73,0,0,1,1.61-1.17,25.21,25.21,0,0,1,3.11-1.57,50.32,50.32,0,0,1,6.2-2.1,109,109,0,0,1,12.46-2.49c4.16-.64,8.4-1.11,12.6-1.47s8.39-.59,12.54-.81l6.19-.4c2.06-.11,4.13-.46,6.19-.72,4.11-.56,8.19-1.18,12.21-2A115.33,115.33,0,0,0,419.33,94a.84.84,0,0,1,.74,1.5Z" style="fill: rgb(245, 245, 245); transform-origin: 356.888px 112.788px 0px;" id="elpd7riz6wvwm" class="animable"></path></g><g id="freepik--Shadow--inject-35" style="transform-origin: 250px 416.24px 0px;" class="animable"><ellipse id="freepik--path--inject-35" cx="250" cy="416.24" rx="193.89" ry="11.32" style="fill: rgb(245, 245, 245); transform-origin: 250px 416.24px 0px;" class="animable"></ellipse></g><g id="freepik--Beam--inject-35" style="transform-origin: 250.002px 206px 0px;" class="animable"><g id="el4xr8fb5xlhj"><path d="M370.69,412H129.31a41.44,41.44,0,0,1-40.84-48.47L151,0H349l62.53,363.51A41.44,41.44,0,0,1,370.69,412Z" style="fill: rgb(187, 35, 233); opacity: 0.1; transform-origin: 250.002px 206px 0px;" class="animable"></path></g></g><g id="freepik--Character--inject-35" style="transform-origin: 251.221px 258.1px 0px;" class="animable"><polygon points="302.7 351.09 295.87 355.38 284.11 340.7 290.94 336.41 302.7 351.09" style="fill: rgb(255, 139, 123); transform-origin: 293.405px 345.895px 0px;" id="elemz1zx1yjyg" class="animable"></polygon><polygon points="346.33 323.83 339.67 328.39 323.93 316.52 330.58 311.96 346.33 323.83" style="fill: rgb(255, 139, 123); transform-origin: 335.13px 320.175px 0px;" id="el89p5jjobg4r" class="animable"></polygon><path d="M338.09,329.36l4.35-8.82a.7.7,0,0,1,.8-.37l7.14,1.74a1.18,1.18,0,0,1,.77,1.69c-1.45,2.82-2.64,4.81-4.4,8.38-1.09,2.2-3.09,6.85-4.59,9.89s-4.7,1.95-4.36.58c1.53-6.18.89-9.11.16-11.69A2,2,0,0,1,338.09,329.36Z" style="fill: rgb(38, 50, 56); transform-origin: 344.529px 331.984px 0px;" id="elc5mg4l1qe1d" class="animable"></path><path d="M294.17,351l5.75-2.24a.64.64,0,0,1,.78-.19l3.09,1.44a3.61,3.61,0,0,1,1.29,5.56c-1.48,1.83-2.79,2.69-4.26,4.6-2.58,3.36-3.8,5.76-6.83,9.71-1.83,2.38-4.75,1.2-4.21,0,2.5-5.32,5.65-11,4.3-17.05A3.19,3.19,0,0,1,294.17,351Z" style="fill: rgb(255, 139, 123); transform-origin: 297.803px 359.883px 0px;" id="el69wi0drszgi" class="animable"></path><path d="M220.48,157.45c-2.86,5.61-5.81,11.23-8.79,16.8l-9,16.94a16.32,16.32,0,0,1-4.72,5.17,20.83,20.83,0,0,1-5.68,2.77,34.64,34.64,0,0,1-10.92,1.37,59.82,59.82,0,0,1-10.12-1.15c-1.64-.32-3.26-.72-4.86-1.14s-3.16-.89-4.81-1.48l1.52-5.87c2.93.35,6.06.65,9.07.72a65.15,65.15,0,0,0,8.88-.24,27.42,27.42,0,0,0,7.79-1.81,10.26,10.26,0,0,0,2.71-1.65,6,6,0,0,0,1.49-2l1.81-4.13c.64-1.48,1.32-2.93,2-4.38,1.34-2.91,2.7-5.8,4.11-8.66,2.79-5.75,5.69-11.41,8.76-17Z" style="fill: rgb(255, 139, 123); transform-origin: 191.03px 176.115px 0px;" id="el0zbj6dqfmep" class="animable"></path><path d="M220.89,160c-.66,1.49-1.43,3-2.23,4.5a122,122,0,0,1-7.82,12.3l-11.22-7.66s.75-12.49,6.81-20.62,15.47-5.74,16.61,2.65C223.35,153.46,222.39,156.66,220.89,160Z" style="fill: rgb(187, 35, 233); transform-origin: 211.359px 160.154px 0px;" id="elwaz2uilr4h" class="animable"></path><g id="elm7x42zl911"><path d="M220.89,160c-.66,1.49-1.43,3-2.23,4.5a122,122,0,0,1-7.82,12.3l-11.22-7.66s.75-12.49,6.81-20.62,15.47-5.74,16.61,2.65C223.35,153.46,222.39,156.66,220.89,160Z" style="opacity: 0.4; transform-origin: 211.359px 160.154px 0px;" class="animable"></path></g><path d="M167.36,191.58l-8.49-2.42.68,10.29a7.77,7.77,0,0,0,8.74-2.89Z" style="fill: rgb(255, 139, 123); transform-origin: 163.58px 194.496px 0px;" id="el84dsad4e4c" class="animable"></path><polygon points="151.16 191.49 155.75 198.25 159.56 199.45 158.87 189.16 151.16 191.49" style="fill: rgb(255, 139, 123); transform-origin: 155.36px 194.305px 0px;" id="el0m793376h4oh" class="animable"></polygon><g id="elb0bq0a9dx3"><polygon points="284.11 340.7 290.17 348.27 297.01 343.98 290.95 336.41 284.11 340.7" style="opacity: 0.2; transform-origin: 290.56px 342.34px 0px;" class="animable"></polygon></g><g id="el75h7gv4lc29"><polygon points="330.59 311.97 323.93 316.53 332.47 322.96 337.52 317.19 330.59 311.97" style="opacity: 0.2; transform-origin: 330.725px 317.465px 0px;" class="animable"></polygon></g><path d="M208.37,163.7c5.9,7.56,15.82,22.58,28.31,50.17l37.88-20.7c-7.53-22.87-18.06-40.91-33.67-63.92a8,8,0,0,0-11.18-2.06,71.68,71.68,0,0,0-7.64,6.06,157.19,157.19,0,0,0-12.7,13.24c-.4.5-.8,1-1.18,1.52A12.93,12.93,0,0,0,208.37,163.7Z" style="fill: rgb(187, 35, 233); transform-origin: 240.094px 169.813px 0px;" id="elc5c52ogppcj" class="animable"></path><g id="elmp3897uznld"><path d="M208.37,163.7c5.9,7.56,15.82,22.58,28.31,50.17l37.88-20.7c-7.53-22.87-18.06-40.91-33.67-63.92a8,8,0,0,0-11.18-2.06,71.68,71.68,0,0,0-7.64,6.06,157.19,157.19,0,0,0-12.7,13.24c-.4.5-.8,1-1.18,1.52A12.93,12.93,0,0,0,208.37,163.7Z" style="opacity: 0.4; transform-origin: 240.094px 169.813px 0px;" class="animable"></path></g><g id="el082c5pgm2p1i"><path d="M238.52,137.34s6.29,6.77,13.71,9.28q-2.61-4.19-5.45-8.53Z" style="opacity: 0.2; transform-origin: 245.375px 141.98px 0px;" class="animable"></path></g><path d="M210.11,124.29c2.52,4,7.82,10.71,12.91,9.86,0,0,4.82,5.55-3.7,12.47-8,6.46-9,.77-9,.77,3.67-5.6.8-8.12-2.58-9.77Z" style="fill: rgb(255, 139, 123); transform-origin: 216.059px 136.998px 0px;" id="elwts5vrr1qr" class="animable"></path><path d="M238.49,161.06c3,5,4.12,13.31.65,15.38s-10.22-2.86-13.22-7.9-1.65-9.18,1.82-11.24S235.48,156,238.49,161.06Z" style="fill: rgb(187, 35, 233); transform-origin: 232.774px 166.58px 0px;" id="el93sphvpo0ks" class="animable"></path><g id="elnpx8c1z0lfk"><path d="M229.86,166.52c1.53.61,3.26,2.35,3.11,3.6s-2.11,1.53-3.64.92a2.84,2.84,0,0,1-1.9-3.12C227.58,166.67,228.33,165.91,229.86,166.52Z" style="fill: rgb(255, 255, 255); opacity: 0.3; transform-origin: 230.188px 168.828px 0px;" class="animable"></path></g><g id="elm4264t1vpwf"><path d="M234.87,163.54c-.2,1.63.52,4,1.69,4.45s2.34-1.13,2.54-2.77a2.84,2.84,0,0,0-1.85-3.15C236.09,161.6,235.06,161.91,234.87,163.54Z" style="fill: rgb(255, 255, 255); opacity: 0.3; transform-origin: 236.988px 164.969px 0px;" class="animable"></path></g><path d="M235.46,152.94A10.95,10.95,0,0,0,220.23,162a18.1,18.1,0,0,0,11.19,18.78,10.93,10.93,0,0,0,15.23-9.07,18.1,18.1,0,0,0-11.19-18.78Zm-11.3,19.45a14.94,14.94,0,0,1-2.1-9.7,9.85,9.85,0,0,1,4.56-7.26,9.65,9.65,0,0,1,7.63-.85l-3.46,23.9A15.14,15.14,0,0,1,224.16,172.39Zm20.65-1.34a9.78,9.78,0,0,1-4.56,7.25,9.61,9.61,0,0,1-7.63.86l3.47-23.91a15.24,15.24,0,0,1,6.62,6.09A14.91,14.91,0,0,1,244.81,171.05Z" style="fill: rgb(255, 255, 255); transform-origin: 233.44px 166.864px 0px;" id="eljwkbk01rrad" class="animable"></path><g id="elhimx5mvj7fe"><path d="M209.14,129.72l-1.41,7.89A12.36,12.36,0,0,1,210,139c4.11-1.34,4.27-6,3-7.6C212.28,130.55,209.63,129.9,209.14,129.72Z" style="opacity: 0.2; transform-origin: 210.715px 134.36px 0px;" class="animable"></path></g><path d="M194.55,135.71c-4.1,3.07-13.69.29-14.39-8.38-.44-5.35,2.25-7.09,2.41-14s-2.58-9.08.09-10.5c0,0-1.1.88.11,2.75s3.3,3.34,3.26,5.48.48,4.36,4.46,4.82S198,128.47,194.55,135.71Z" style="fill: rgb(38, 50, 56); transform-origin: 188.031px 119.874px 0px;" id="el8lxcn02fxmt" class="animable"></path><path d="M186.45,121.74c-1.23-5.77-1.63-11.36,2.71-14.45s0-7.79,0-7.79,5.91,1.92,4.54,6.88,2.48,7.75,2,10.7S187.32,125.83,186.45,121.74Z" style="fill: rgb(38, 50, 56); transform-origin: 190.682px 111.326px 0px;" id="elknv8xmpvv2" class="animable"></path><path d="M181,122.34l-.27-1c2.8-.79,4.91-4.85,4.9-9.44,0-6.19,1.63-7.45,1.81-7.57l.55.84h0s-1.37,1.13-1.36,6.72C186.63,116.31,184.7,121.29,181,122.34Z" style="fill: rgb(38, 50, 56); transform-origin: 184.36px 113.335px 0px;" id="elei3an7jmsbl" class="animable"></path><path d="M194.38,127.63c-2.48-2.95-1.28-8.16,1.18-11.77,3.15-4.63,2.65-6.34,2.65-6.35l.93-.37c.08.21.73,2.16-2.75,7.28-2.59,3.79-3.12,8.33-1.25,10.57Z" style="fill: rgb(38, 50, 56); transform-origin: 196.126px 118.385px 0px;" id="elu69t1vo3h6" class="animable"></path><path d="M195.86,121.47c2.39-4.17,4.08-8.32,1.48-11.21s1.94-5.85,1.94-5.85-5.07.65-5.24,4.56-3.85,5.49-4.2,7.77S194.16,124.42,195.86,121.47Z" style="fill: rgb(38, 50, 56); transform-origin: 194.551px 113.37px 0px;" id="elvnowfzh6xs" class="animable"></path><path d="M188.29,126.08c-1.26-4.63-3-8.76-6.88-9s-2.78-5.5-2.78-5.5-2.47,3.57-.47,6.92c3.08,5.17.12,10.32,4.19,14.49C184,134.67,189.18,129.37,188.29,126.08Z" style="fill: rgb(38, 50, 56); transform-origin: 182.885px 122.446px 0px;" id="el7dyhntae4o8" class="animable"></path><path d="M190.05,133.54c7.1,3.69,11.07,6.22,16.67,4.87,8.42-2,10.36-12.37,4.51-18.12-5.28-5.17-16-10.35-22.77-5.28A10.93,10.93,0,0,0,190.05,133.54Z" style="fill: rgb(255, 139, 123); transform-origin: 199.323px 125.857px 0px;" id="elp3f5s9ii7y8" class="animable"></path><path d="M195.17,134.85c.32-3.35-5.25-9-11.93-9.64-1.25,4.71,1.37,7.25,3.67,8.92S195.17,134.85,195.17,134.85Z" style="fill: rgb(38, 50, 56); transform-origin: 189.05px 130.165px 0px;" id="elvkru3zb8v1f" class="animable"></path><path d="M184.28,126.88c3.32-.55,6.42-3.42,7.13-7.88a13.38,13.38,0,0,0-.46-7S179.91,117.71,184.28,126.88Z" style="fill: rgb(38, 50, 56); transform-origin: 187.466px 119.44px 0px;" id="el2clrq8opmq" class="animable"></path><path d="M184.31,127.37l-.06-1c2.91-.19,5.82-3.72,6.77-8.22,1.28-6,3.14-6.94,3.35-7l.36.94s-1.58.81-2.73,6.29C191.09,122.65,188.16,127.12,184.31,127.37Z" style="fill: rgb(38, 50, 56); transform-origin: 189.49px 119.26px 0px;" id="elu9a7nfnvm7c" class="animable"></path><path d="M193.72,137.82a7.59,7.59,0,0,0,5.81-.34c2.39-1.18,1.81-3.75-.34-5.08-1.94-1.2-5.51-2-7.2,0S191.4,137,193.72,137.82Z" style="fill: rgb(255, 139, 123); transform-origin: 196.126px 134.712px 0px;" id="elwr6xh7fy1sh" class="animable"></path><path d="M236.68,213.87s-6.71,53.37,5.87,74.55c13.07,22,44.07,59.88,44.07,59.88L298.19,341s-24-39-35.48-61.4c-12.56-24.38,9-60.81-1.13-79.36Z" style="fill: rgb(187, 35, 233); transform-origin: 266.541px 274.27px 0px;" id="el3uara8xqybt" class="animable"></path><g id="el3kwgw9cwadl"><path d="M258.75,222.15c-5.73,5.14-4.94,23.39.11,32.66.77-10.24,3.28-20.86,4.64-30.52C261.93,221.88,260.29,220.77,258.75,222.15Z" style="opacity: 0.2; transform-origin: 259.128px 238.179px 0px;" class="animable"></path></g><path d="M250.12,206.53s11.25,53.75,26.74,71.62c17,19.56,50.8,45.86,50.8,45.86l8.49-10.79S314,289,299.21,268.55c-16-22.22-14.95-57.63-24.65-75.38Z" style="fill: rgb(187, 35, 233); transform-origin: 293.135px 258.59px 0px;" id="elkfvojn9k2xh" class="animable"></path><polygon points="327.98 325.16 338.61 312.41 334.6 309.09 323.17 322.32 327.98 325.16" style="fill: rgb(38, 50, 56); transform-origin: 330.89px 317.125px 0px;" id="elu3lbdo9e6lb" class="animable"></polygon><polygon points="285.78 349.32 299.05 340.87 296.26 336.38 280.91 345.84 285.78 349.32" style="fill: rgb(38, 50, 56); transform-origin: 289.98px 342.85px 0px;" id="elkvczhuwm1e" class="animable"></polygon><path d="M198.21,124.29c.56.34,1.19.31,1.4-.05s-.05-.93-.61-1.27-1.19-.31-1.41,0S197.65,124,198.21,124.29Z" style="fill: rgb(38, 50, 56); transform-origin: 198.599px 123.627px 0px;" id="el1na8vorw96p" class="animable"></path><path d="M207.4,127.24a.92.92,0,0,0,1.06-.7c0-.43-.4-.8-1-.84a.8.8,0,1,0-.11,1.54Z" style="fill: rgb(38, 50, 56); transform-origin: 207.428px 126.455px 0px;" id="elec1ple3pwns" class="animable"></path><path d="M202,118c.56.34,1.19.32,1.4,0s-.05-.93-.61-1.27-1.19-.31-1.41.06S201.44,117.65,202,118Z" style="fill: rgb(38, 50, 56); transform-origin: 202.389px 117.37px 0px;" id="elheht959fu76" class="animable"></path><path d="M201.07,120.16a23.46,23.46,0,0,0,6.37.2,3.73,3.73,0,0,1-1.1,3Z" style="fill: rgb(255, 86, 82); transform-origin: 204.263px 121.76px 0px;" id="elp6xqe5izbcq" class="animable"></path><path d="M196.1,125.53a.36.36,0,0,0,.08-.41,3.07,3.07,0,0,1,.17-2.76.38.38,0,0,0-.09-.53.39.39,0,0,0-.54.09,3.86,3.86,0,0,0-.25,3.49.39.39,0,0,0,.5.21A.3.3,0,0,0,196.1,125.53Z" style="fill: rgb(38, 50, 56); transform-origin: 195.794px 123.703px 0px;" id="elsc1zsmpsm9" class="animable"></path><path d="M201.43,114a.38.38,0,0,0-.23-.65,3.79,3.79,0,0,0-3.26,1.25.38.38,0,0,0,.06.54.39.39,0,0,0,.54-.07,3,3,0,0,1,2.59-1A.36.36,0,0,0,201.43,114Z" style="fill: rgb(38, 50, 56); transform-origin: 199.699px 114.272px 0px;" id="ellbqq5fysmcf" class="animable"></path><path d="M234.87,128.4c1.65-.13,3.11-.21,4.64-.24s3-.06,4.56-.06c3,0,6.07.14,9.12.38s6.11.62,9.17,1.13l2.31.41,2.31.52c.77.15,1.55.39,2.32.59l1.16.31.15,0,.3.1.6.2c.37.16.76.32,1.08.49a14.26,14.26,0,0,1,5,4.73,31.92,31.92,0,0,1,2.53,4.58,62.42,62.42,0,0,1,3.14,8.91,107.91,107.91,0,0,1,3.29,17.81l-5.94,1.2c-1.82-5.4-3.81-10.87-6-16a67.52,67.52,0,0,0-3.57-7.28,22.57,22.57,0,0,0-2-2.93c-.64-.79-1.41-1.33-1.38-1.2a.25.25,0,0,0,.07,0l.08,0h0l-.11,0-1-.18c-.66-.11-1.29-.26-2-.34l-2-.28-2-.23c-2.72-.28-5.49-.47-8.28-.57s-5.6-.15-8.41-.13c-1.41,0-2.82,0-4.22,0l-4.13.12Z" style="fill: rgb(255, 139, 123); transform-origin: 260.71px 148.78px 0px;" id="el12xk1fzhf1y" class="animable"></path><path d="M228.64,128.07c5-5.91,27.92-.2,27.92-.2l.47,15.47a74,74,0,0,1-20.11.48C226.51,142.39,223,134.77,228.64,128.07Z" style="fill: rgb(187, 35, 233); transform-origin: 241.496px 134.839px 0px;" id="elvwu913xxuua" class="animable"></path><g id="elj6uyyq58wtg"><path d="M228.64,128.07c5-5.91,27.92-.2,27.92-.2l.47,15.47a74,74,0,0,1-20.11.48C226.51,142.39,223,134.77,228.64,128.07Z" style="opacity: 0.4; transform-origin: 241.496px 134.839px 0px;" class="animable"></path></g><path d="M338.18,332.38a2.42,2.42,0,0,1-1.06,1.21,1.11,1.11,0,0,1-1.08-.09.63.63,0,0,1-.34-.53c0-1,2.57-2.63,2.87-2.81a.18.18,0,0,1,.21,0,.19.19,0,0,1,.07.2A9.17,9.17,0,0,1,338.18,332.38Zm-2,.34a.64.64,0,0,0-.07.24.25.25,0,0,0,.15.21.77.77,0,0,0,.74.07c.53-.23,1-1.15,1.4-2.5A7.51,7.51,0,0,0,336.15,332.72Z" style="fill: rgb(187, 35, 233); transform-origin: 337.278px 331.908px 0px;" id="elxyrtffqakhg" class="animable"></path><path d="M338.84,330.4a.22.22,0,0,1-.06.07c-.78.55-3.08,1.22-3.81.67a.63.63,0,0,1-.18-.77,1,1,0,0,1,.58-.62c1.1-.5,3.28.35,3.37.39a.22.22,0,0,1,.12.16A.36.36,0,0,1,338.84,330.4Zm-3.66,0,0,.08c-.08.23,0,.3.05.33.43.33,2.09,0,3-.47a4.59,4.59,0,0,0-2.69-.26A.69.69,0,0,0,335.18,330.42Z" style="fill: rgb(187, 35, 233); transform-origin: 336.794px 330.469px 0px;" id="elyhkuru9agvr" class="animable"></path><path d="M264.5,407.45l8.81-.15a.71.71,0,0,1,.7.54l1.72,7.14a1.19,1.19,0,0,1-1.14,1.46c-3.18,0-7.78-.11-11.77,0-4.67.08-6.29.16-11.77.26-3.31,0-4.29-3.28-2.91-3.61,6.29-1.49,9-1.48,14.43-4.94A3.73,3.73,0,0,1,264.5,407.45Z" style="fill: rgb(38, 50, 56); transform-origin: 261.648px 412px 0px;" id="elqdb3vf8aleh" class="animable"></path><path d="M261.17,408.92a3.11,3.11,0,0,1-2-.46,1.08,1.08,0,0,1-.38-.93.62.62,0,0,1,.31-.51c1-.56,4.24,1,4.61,1.21a.18.18,0,0,1,.11.19.2.2,0,0,1-.15.17A14.83,14.83,0,0,1,261.17,408.92Zm-1.49-1.65a.87.87,0,0,0-.36.08.22.22,0,0,0-.11.21.67.67,0,0,0,.24.61c.5.43,1.83.48,3.61.16A10.54,10.54,0,0,0,259.68,407.27Z" style="fill: rgb(187, 35, 233); transform-origin: 261.303px 407.919px 0px;" id="elmyxm0k7mjf" class="animable"></path><path d="M263.66,408.59h-.08c-1-.42-2.94-2.14-2.81-3.05,0-.22.18-.49.71-.55a1.39,1.39,0,0,1,1.06.31c1,.83,1.3,3,1.31,3.09a.17.17,0,0,1-.08.17A.15.15,0,0,1,263.66,408.59Zm-2-3.24h-.12c-.34,0-.36.18-.37.22-.08.55,1.26,1.9,2.26,2.48a4.42,4.42,0,0,0-1.11-2.47A1,1,0,0,0,261.64,405.35Z" style="fill: rgb(187, 35, 233); transform-origin: 262.308px 406.785px 0px;" id="ellrqx8u1yt6d" class="animable"></path><path d="M280.66,167.44l-2.39,7.84,10.22-1.38s.55-7.12-3.19-7.84Z" style="fill: rgb(255, 139, 123); transform-origin: 283.394px 170.67px 0px;" id="elwnxicz2gvos" class="animable"></path><polygon points="280.86 183.64 289.17 182.05 288.49 173.9 278.27 175.28 280.86 183.64" style="fill: rgb(255, 139, 123); transform-origin: 283.72px 178.77px 0px;" id="ele8ur23saxc" class="animable"></polygon></g><g id="freepik--Backpack--inject-35" style="transform-origin: 165.822px 381.11px 0px;" class="animable"><path d="M148.23,360.67l2.56-10.06s-19.4,14.87-27.5,37.4,4.92,28.65,14.11,28.65h9.95c-14.87,0-17.39-10.6-15.74-21.21S148.23,360.67,148.23,360.67Z" style="fill: rgb(38, 50, 56); transform-origin: 135.767px 383.635px 0px;" id="elw2i5wnnt5rj" class="animable"></path><path d="M146.47,416.66c37.41,0,62.31,0,60.92-18.37S192.49,349.2,181.56,347s-31.85-2.67-35.95,7.82C141.22,366,128.07,416.66,146.47,416.66Z" style="fill: rgb(187, 35, 233); transform-origin: 172.196px 381.189px 0px;" id="elis5bldig1dm" class="animable"></path><path d="M157.43,416.66c37.41,0,51.35,0,50-18.37S192.49,349.2,181.56,347s-34.43-3.34-35.95,7.82S139,416.66,157.43,416.66Z" style="fill: rgb(187, 35, 233); transform-origin: 175.662px 381.11px 0px;" id="elzwqfzxy6osk" class="animable"></path><g id="el87t0axb0qcs"><path d="M157.43,416.66c37.41,0,51.35,0,50-18.37S192.49,349.2,181.56,347s-34.43-3.34-35.95,7.82S139,416.66,157.43,416.66Z" style="fill: rgb(255, 255, 255); opacity: 0.3; transform-origin: 175.662px 381.11px 0px;" class="animable"></path></g><path d="M157.49,414.69c25,0,40.1,0,45.43-5.76,2.08-2.24,2.88-5.57,2.51-10.49-1.36-17.9-14.6-47.57-24.26-49.51a79.31,79.31,0,0,0-14.61-1.4c-5.4,0-18.07.74-19,7.55-2.12,15.54-3.93,47.44,4.4,57a7,7,0,0,0,5.47,2.63Z" style="fill: rgb(38, 50, 56); transform-origin: 175.648px 381.12px 0px;" id="elvmefma7p8a9" class="animable"></path><path d="M209.89,371.8c-.39-1.33-.81-2.65-1.26-3.93l1-.33c.45,1.3.88,2.64,1.27,4Z" style="fill: rgb(187, 35, 233); transform-origin: 209.765px 369.67px 0px;" id="elc2cmw5mohkc" class="animable"></path><path d="M207.34,364.42a51.69,51.69,0,0,0-7.09-12.8L201,351a52.89,52.89,0,0,1,7.24,13.05Z" style="fill: rgb(187, 35, 233); transform-origin: 204.245px 357.71px 0px;" id="elebqfzufkyos" class="animable"></path><path d="M156.58,416.66c37.41,0,51.35,0,53.77-18.08s-8.51-48.45-19-50.61-29.94-3.18-33.78,7.81S138.18,416.66,156.58,416.66Z" style="fill: rgb(187, 35, 233); transform-origin: 179.233px 381.623px 0px;" id="el5ea9q237098" class="animable"></path><g id="el3kpneyvca1g"><path d="M157.59,355.77a8.05,8.05,0,0,1,.41-1c7.21,10.45,12.68,30.46,10.9,43.81-1.36,10.13-6.33,14.59-17,16.54C141.31,406.66,154.15,365.62,157.59,355.77Z" style="opacity: 0.2; transform-origin: 158.517px 384.945px 0px;" class="animable"></path></g><path d="M144,410.16h0a.8.8,0,0,0,1.11-.22l2.71-4.1a.8.8,0,0,0-.23-1.11h0a.79.79,0,0,0-1.11.22l-2.71,4.1A.8.8,0,0,0,144,410.16Z" style="fill: rgb(255, 255, 255); transform-origin: 145.795px 407.443px 0px;" id="el40pcqzsi9bi" class="animable"></path><path d="M207.6,394.42h0a.8.8,0,0,0,.29-1.09l-2.47-4.25a.81.81,0,0,0-1.1-.29h0a.81.81,0,0,0-.29,1.1l2.47,4.24A.8.8,0,0,0,207.6,394.42Z" style="fill: rgb(255, 255, 255); transform-origin: 205.96px 391.607px 0px;" id="elfy3xhwoff2o" class="animable"></path><g id="elax1elrk34dj"><path d="M170.54,387.9s29.42,4.27,38.39,0Z" style="opacity: 0.2; transform-origin: 189.735px 388.849px 0px;" class="animable"></path></g></g><defs>     <filter id="active" height="200%">         <feMorphology in="SourceAlpha" result="DILATED" operator="dilate" radius="2"></feMorphology>                <feFlood flood-color="#32DFEC" flood-opacity="1" result="PINK"></feFlood>        <feComposite in="PINK" in2="DILATED" operator="in" result="OUTLINE"></feComposite>        <feMerge>            <feMergeNode in="OUTLINE"></feMergeNode>            <feMergeNode in="SourceGraphic"></feMergeNode>        </feMerge>    </filter>    <filter id="hover" height="200%">        <feMorphology in="SourceAlpha" result="DILATED" operator="dilate" radius="2"></feMorphology>                <feFlood flood-color="#ff0000" flood-opacity="0.5" result="PINK"></feFlood>        <feComposite in="PINK" in2="DILATED" operator="in" result="OUTLINE"></feComposite>        <feMerge>            <feMergeNode in="OUTLINE"></feMergeNode>            <feMergeNode in="SourceGraphic"></feMergeNode>        </feMerge>            <feColorMatrix type="matrix" values="0   0   0   0   0                0   1   0   0   0                0   0   0   0   0                0   0   0   1   0 "></feColorMatrix>    </filter></defs></svg>